ISO-10303-21;
HEADER;
FILE_DESCRIPTION (( 'STEP AP214' ),
    '1' );
FILE_NAME ('XPEAMB-L1-0000-00401.STEP',
    '2022-08-08T04:55:04',
    ( '' ),
    ( '' ),
    'SwSTEP 2.0',
    'SolidWorks 2018',
    '' );
FILE_SCHEMA (( 'AUTOMOTIVE_DESIGN' ));
ENDSEC;

DATA;
#1 = CARTESIAN_POINT ( 'NONE',  ( 0.000000000000000000, 0.000000000000000000, 1.723999999999999977 ) ) ;
#2 = CARTESIAN_POINT ( 'NONE',  ( 0.6500000000000001332, -0.3649999999999999911, 1.649999999999999689 ) ) ;
#3 = DIRECTION ( 'NONE',  ( -1.000000000000000000, -0.000000000000000000, -0.000000000000000000 ) ) ;
#4 = UNCERTAINTY_MEASURE_WITH_UNIT (LENGTH_MEASURE( 1.000000000000000082E-05 ), #513, 'distance_accuracy_value', 'NONE');
#5 = PLANE ( 'NONE',  #411 ) ;
#6 = AXIS2_PLACEMENT_3D ( 'NONE', #1045, #321, #834 ) ;
#7 = EDGE_CURVE ( 'NONE', #550, #684, #391, .T. ) ;
#8 =( GEOMETRIC_REPRESENTATION_CONTEXT ( 3 ) GLOBAL_UNCERTAINTY_ASSIGNED_CONTEXT ( ( #1142 ) ) GLOBAL_UNIT_ASSIGNED_CONTEXT ( ( #725, #398, #615 ) ) REPRESENTATION_CONTEXT ( 'NONE', 'WORKASPACE' ) );
#9 = FACE_OUTER_BOUND ( 'NONE', #562, .T. ) ;
#10 = LINE ( 'NONE', #767, #1096 ) ;
#11 = DIRECTION ( 'NONE',  ( -1.314184451497581259E-16, 0.000000000000000000, -1.000000000000000000 ) ) ;
#12 = CIRCLE ( 'NONE', #1072, 1.393951218658673330 ) ;
#13 =( GEOMETRIC_REPRESENTATION_CONTEXT ( 3 ) GLOBAL_UNCERTAINTY_ASSIGNED_CONTEXT ( ( #1086 ) ) GLOBAL_UNIT_ASSIGNED_CONTEXT ( ( #263, #168, #906 ) ) REPRESENTATION_CONTEXT ( 'NONE', 'WORKASPACE' ) );
#14 = SURFACE_SIDE_STYLE ('',( #634 ) ) ;
#15 = LINE ( 'NONE', #268, #1067 ) ;
#16 = MECHANICAL_DESIGN_GEOMETRIC_PRESENTATION_REPRESENTATION (  '', ( #602 ), #1217 ) ;
#17 = EDGE_LOOP ( 'NONE', ( #64, #1301, #126, #940 ) ) ;
#18 = APPLICATION_PROTOCOL_DEFINITION ( 'draft international standard', 'automotive_design', 1998, #523 ) ;
#19 = ORIENTED_EDGE ( 'NONE', *, *, #81, .F. ) ;
#20 = SURFACE_STYLE_USAGE ( .BOTH. , #215 ) ;
#21 = CARTESIAN_POINT ( 'NONE',  ( 1.149999999999999689, -0.3149999999999999467, -1.650000000000000133 ) ) ;
#22 = UNCERTAINTY_MEASURE_WITH_UNIT (LENGTH_MEASURE( 1.000000000000000082E-05 ), #688, 'distance_accuracy_value', 'NONE');
#23 = FACE_OUTER_BOUND ( 'NONE', #1105, .T. ) ;
#24 = AXIS2_PLACEMENT_3D ( 'NONE', #964, #680, #1176 ) ;
#25 = PLANE ( 'NONE',  #897 ) ;
#26 = LINE ( 'NONE', #1042, #1097 ) ;
#27 = VECTOR ( 'NONE', #382, 1000.000000000000000 ) ;
#28 = DIRECTION ( 'NONE',  ( 0.000000000000000000, -1.000000000000000000, 0.000000000000000000 ) ) ;
#29 = ORIENTED_EDGE ( 'NONE', *, *, #325, .F. ) ;
#30 = VECTOR ( 'NONE', #691, 1000.000000000000000 ) ;
#31 = ORIENTED_EDGE ( 'NONE', *, *, #876, .T. ) ;
#32 = ORIENTED_EDGE ( 'NONE', *, *, #225, .T. ) ;
#33 =( GEOMETRIC_REPRESENTATION_CONTEXT ( 3 ) GLOBAL_UNCERTAINTY_ASSIGNED_CONTEXT ( ( #278 ) ) GLOBAL_UNIT_ASSIGNED_CONTEXT ( ( #251, #578, #151 ) ) REPRESENTATION_CONTEXT ( 'NONE', 'WORKASPACE' ) );
#34 = EDGE_CURVE ( 'NONE', #178, #859, #816, .T. ) ;
#35 = AXIS2_PLACEMENT_3D ( 'NONE', #1328, #726, #312 ) ;
#36 =( NAMED_UNIT ( * ) PLANE_ANGLE_UNIT ( ) SI_UNIT ( $, .RADIAN. ) );
#37 = DIRECTION ( 'NONE',  ( -1.314184451497581259E-16, 0.000000000000000000, 1.000000000000000000 ) ) ;
#38 = SHAPE_DEFINITION_REPRESENTATION ( #354, #807 ) ;
#39 = UNCERTAINTY_MEASURE_WITH_UNIT (LENGTH_MEASURE( 1.000000000000000082E-05 ), #143, 'distance_accuracy_value', 'NONE');
#40 = PLANE ( 'NONE',  #200 ) ;
#41 = SURFACE_STYLE_USAGE ( .BOTH. , #243 ) ;
#42 = AXIS2_PLACEMENT_3D ( 'NONE', #786, #50, #353 ) ;
#43 = PRESENTATION_STYLE_ASSIGNMENT (( #1157 ) ) ;
#44 = EDGE_CURVE ( 'NONE', #1245, #1132, #116, .T. ) ;
#45 = COLOUR_RGB ( '',1.000000000000000000, 1.000000000000000000, 0.000000000000000000 ) ;
#46 =( LENGTH_UNIT ( ) NAMED_UNIT ( * ) SI_UNIT ( .MILLI., .METRE. ) );
#47 = SPHERICAL_SURFACE ( 'NONE', #771, 1.300000000000000044 ) ;
#48 = SURFACE_STYLE_USAGE ( .BOTH. , #53 ) ;
#49 = VERTEX_POINT ( 'NONE', #1159 ) ;
#50 = DIRECTION ( 'NONE',  ( 0.000000000000000000, 1.000000000000000000, 0.000000000000000000 ) ) ;
#51 = SURFACE_SIDE_STYLE ('',( #124 ) ) ;
#52 = STYLED_ITEM ( 'NONE', ( #582 ), #371 ) ;
#53 = SURFACE_SIDE_STYLE ('',( #829 ) ) ;
#54 = DIRECTION ( 'NONE',  ( 0.000000000000000000, 0.000000000000000000, 1.000000000000000000 ) ) ;
#55 = FILL_AREA_STYLE ('',( #1271 ) ) ;
#56 = ADVANCED_FACE ( 'NONE', ( #953 ), #257, .T. ) ;
#57 = SURFACE_SIDE_STYLE ('',( #770 ) ) ;
#58 = CARTESIAN_POINT ( 'NONE',  ( -1.650000000000000133, -0.3649999999999999911, 1.649999999999999689 ) ) ;
#59 = AXIS2_PLACEMENT_3D ( 'NONE', #473, #566, #54 ) ;
#60 =( GEOMETRIC_REPRESENTATION_CONTEXT ( 3 ) GLOBAL_UNCERTAINTY_ASSIGNED_CONTEXT ( ( #310 ) ) GLOBAL_UNIT_ASSIGNED_CONTEXT ( ( #199, #304, #108 ) ) REPRESENTATION_CONTEXT ( 'NONE', 'WORKASPACE' ) );
#61 = SURFACE_SIDE_STYLE ('',( #1020 ) ) ;
#62 = CARTESIAN_POINT ( 'NONE',  ( 1.725000000000000311, 0.2350000000000000144, 1.723999999999999977 ) ) ;
#63 = CARTESIAN_POINT ( 'NONE',  ( -1.724000000000000199, 0.2350000000000000144, 1.723999999999999977 ) ) ;
#64 = ORIENTED_EDGE ( 'NONE', *, *, #305, .T. ) ;
#65 = ORIENTED_EDGE ( 'NONE', *, *, #648, .T. ) ;
#66 = ORIENTED_EDGE ( 'NONE', *, *, #1304, .F. ) ;
#67 = CARTESIAN_POINT ( 'NONE',  ( 0.000000000000000000, -0.3149999999999999467, 0.000000000000000000 ) ) ;
#68 = VERTEX_POINT ( 'NONE', #956 ) ;
#69 = FILL_AREA_STYLE_COLOUR ( '', #379 ) ;
#70 =( NAMED_UNIT ( * ) PLANE_ANGLE_UNIT ( ) SI_UNIT ( $, .RADIAN. ) );
#71 = ADVANCED_FACE ( 'NONE', ( #913 ), #545, .T. ) ;
#72 = DIRECTION ( 'NONE',  ( -6.285229985423214289E-17, 0.000000000000000000, -1.000000000000000000 ) ) ;
#73 = DIRECTION ( 'NONE',  ( -1.314184451497581259E-16, -0.000000000000000000, 1.000000000000000000 ) ) ;
#74 = ADVANCED_FACE ( 'NONE', ( #1037 ), #576, .F. ) ;
#75 = PRESENTATION_LAYER_ASSIGNMENT (  '', '', ( #800 ) ) ;
#76 =( GEOMETRIC_REPRESENTATION_CONTEXT ( 3 ) GLOBAL_UNCERTAINTY_ASSIGNED_CONTEXT ( ( #667 ) ) GLOBAL_UNIT_ASSIGNED_CONTEXT ( ( #82, #708, #395 ) ) REPRESENTATION_CONTEXT ( 'NONE', 'WORKASPACE' ) );
#77 = FILL_AREA_STYLE ('',( #796 ) ) ;
#78 =( NAMED_UNIT ( * ) PLANE_ANGLE_UNIT ( ) SI_UNIT ( $, .RADIAN. ) );
#79 = ORIENTED_EDGE ( 'NONE', *, *, #205, .T. ) ;
#80 = PRESENTATION_STYLE_ASSIGNMENT (( #443 ) ) ;
#81 = EDGE_CURVE ( 'NONE', #1258, #752, #844, .T. ) ;
#82 =( LENGTH_UNIT ( ) NAMED_UNIT ( * ) SI_UNIT ( .MILLI., .METRE. ) );
#83 =( GEOMETRIC_REPRESENTATION_CONTEXT ( 3 ) GLOBAL_UNCERTAINTY_ASSIGNED_CONTEXT ( ( #868 ) ) GLOBAL_UNIT_ASSIGNED_CONTEXT ( ( #544, #36, #129 ) ) REPRESENTATION_CONTEXT ( 'NONE', 'WORKASPACE' ) );
#84 = DIRECTION ( 'NONE',  ( 1.000000000000000000, 0.000000000000000000, 0.000000000000000000 ) ) ;
#85 = EDGE_CURVE ( 'NONE', #722, #892, #560, .T. ) ;
#86 = CARTESIAN_POINT ( 'NONE',  ( 1.646130116022971222E-16, 0.4557142857142856829, -1.294383274468767997 ) ) ;
#87 =( LENGTH_UNIT ( ) NAMED_UNIT ( * ) SI_UNIT ( .MILLI., .METRE. ) );
#88 = LINE ( 'NONE', #655, #869 ) ;
#89 = VECTOR ( 'NONE', #3, 1000.000000000000000 ) ;
#90 =( NAMED_UNIT ( * ) SI_UNIT ( $, .STERADIAN. ) SOLID_ANGLE_UNIT ( ) );
#91 = EDGE_CURVE ( 'NONE', #1019, #408, #1315, .T. ) ;
#92 = SURFACE_STYLE_FILL_AREA ( #917 ) ;
#93 = DIRECTION ( 'NONE',  ( -6.285229985423214289E-17, -0.000000000000000000, -1.000000000000000000 ) ) ;
#94 = EDGE_LOOP ( 'NONE', ( #764, #828, #954, #252 ) ) ;
#95 = EDGE_LOOP ( 'NONE', ( #370, #341, #651, #210, #941 ) ) ;
#96 = CARTESIAN_POINT ( 'NONE',  ( -1.725000000000000311, 0.3649999999999999911, -1.725000000000000089 ) ) ;
#97 = ORIENTED_EDGE ( 'NONE', *, *, #508, .F. ) ;
#98 = ORIENTED_EDGE ( 'NONE', *, *, #575, .F. ) ;
#99 = CARTESIAN_POINT ( 'NONE',  ( 1.707097898097896420E-16, 0.4649999999999999689, -1.393951218658673330 ) ) ;
#100 =( LENGTH_UNIT ( ) NAMED_UNIT ( * ) SI_UNIT ( .MILLI., .METRE. ) );
#101 = PRESENTATION_LAYER_ASSIGNMENT (  '', '', ( #602 ) ) ;
#102 = STYLED_ITEM ( 'NONE', ( #1307 ), #1222 ) ;
#103 = COLOUR_RGB ( '',0.7921568627450980005, 0.8196078431372548767, 0.9333333333333333481 ) ;
#104 = CARTESIAN_POINT ( 'NONE',  ( 1.724999999999999867, 0.3649999999999999911, -1.725000000000000089 ) ) ;
#105 = VECTOR ( 'NONE', #11, 1000.000000000000000 ) ;
#106 = UNCERTAINTY_MEASURE_WITH_UNIT (LENGTH_MEASURE( 1.000000000000000082E-05 ), #565, 'distance_accuracy_value', 'NONE');
#107 = VECTOR ( 'NONE', #1206, 1000.000000000000000 ) ;
#108 =( NAMED_UNIT ( * ) SI_UNIT ( $, .STERADIAN. ) SOLID_ANGLE_UNIT ( ) );
#109 = SURFACE_SIDE_STYLE ('',( #972 ) ) ;
#110 = ADVANCED_FACE ( 'NONE', ( #350 ), #47, .T. ) ;
#111 = EDGE_CURVE ( 'NONE', #255, #441, #155, .T. ) ;
#112 = LINE ( 'NONE', #805, #890 ) ;
#113 = APPLICATION_CONTEXT ( 'automotive_design' ) ;
#114 = CARTESIAN_POINT ( 'NONE',  ( -1.650000000000000133, -0.3649999999999999911, 1.649999999999999689 ) ) ;
#115 = ORIENTED_EDGE ( 'NONE', *, *, #1238, .T. ) ;
#116 = LINE ( 'NONE', #369, #30 ) ;
#117 = DIRECTION ( 'NONE',  ( 0.000000000000000000, 0.000000000000000000, -1.000000000000000000 ) ) ;
#118 = DIRECTION ( 'NONE',  ( -1.314184451497581259E-16, 0.000000000000000000, 1.000000000000000000 ) ) ;
#119 =( NAMED_UNIT ( * ) PLANE_ANGLE_UNIT ( ) SI_UNIT ( $, .RADIAN. ) );
#120 = EDGE_CURVE ( 'NONE', #289, #668, #15, .T. ) ;
#121 = DIRECTION ( 'NONE',  ( 0.000000000000000000, -0.000000000000000000, 1.000000000000000000 ) ) ;
#122 = LINE ( 'NONE', #730, #1263 ) ;
#123 = SURFACE_STYLE_FILL_AREA ( #596 ) ;
#124 = SURFACE_STYLE_FILL_AREA ( #55 ) ;
#125 = MECHANICAL_DESIGN_GEOMETRIC_PRESENTATION_REPRESENTATION (  '', ( #850 ), #689 ) ;
#126 = ORIENTED_EDGE ( 'NONE', *, *, #632, .F. ) ;
#127 = VERTEX_POINT ( 'NONE', #598 ) ;
#128 = VERTEX_POINT ( 'NONE', #1200 ) ;
#129 =( NAMED_UNIT ( * ) SI_UNIT ( $, .STERADIAN. ) SOLID_ANGLE_UNIT ( ) );
#130 = EDGE_CURVE ( 'NONE', #127, #441, #1191, .T. ) ;
#131 = LINE ( 'NONE', #62, #1125 ) ;
#132 = EDGE_CURVE ( 'NONE', #408, #128, #192, .T. ) ;
#133 = FACE_OUTER_BOUND ( 'NONE', #894, .T. ) ;
#134 = VECTOR ( 'NONE', #335, 1000.000000000000000 ) ;
#135 = DIRECTION ( 'NONE',  ( 0.000000000000000000, 0.000000000000000000, -1.000000000000000000 ) ) ;
#136 = LINE ( 'NONE', #1303, #27 ) ;
#137 = SURFACE_SIDE_STYLE ('',( #919 ) ) ;
#138 = SURFACE_STYLE_FILL_AREA ( #77 ) ;
#139 = FILL_AREA_STYLE ('',( #762 ) ) ;
#140 = ORIENTED_EDGE ( 'NONE', *, *, #457, .F. ) ;
#141 = ORIENTED_EDGE ( 'NONE', *, *, #393, .F. ) ;
#142 =( GEOMETRIC_REPRESENTATION_CONTEXT ( 3 ) GLOBAL_UNCERTAINTY_ASSIGNED_CONTEXT ( ( #963 ) ) GLOBAL_UNIT_ASSIGNED_CONTEXT ( ( #1038, #219, #1151 ) ) REPRESENTATION_CONTEXT ( 'NONE', 'WORKASPACE' ) );
#143 =( LENGTH_UNIT ( ) NAMED_UNIT ( * ) SI_UNIT ( .MILLI., .METRE. ) );
#144 = FILL_AREA_STYLE_COLOUR ( '', #1299 ) ;
#145 = FACE_OUTER_BOUND ( 'NONE', #294, .T. ) ;
#146 = EDGE_CURVE ( 'NONE', #197, #509, #1175, .T. ) ;
#147 = SURFACE_SIDE_STYLE ('',( #488 ) ) ;
#148 = PRESENTATION_LAYER_ASSIGNMENT (  '', '', ( #336 ) ) ;
#149 = SURFACE_STYLE_FILL_AREA ( #593 ) ;
#150 = PRODUCT ( 'XPEAMB-L1-0000-00401', 'XPEAMB-L1-0000-00401', '', ( #1041 ) ) ;
#151 =( NAMED_UNIT ( * ) SI_UNIT ( $, .STERADIAN. ) SOLID_ANGLE_UNIT ( ) );
#152 = VECTOR ( 'NONE', #644, 1000.000000000000000 ) ;
#153 =( NAMED_UNIT ( * ) SI_UNIT ( $, .STERADIAN. ) SOLID_ANGLE_UNIT ( ) );
#154 = LINE ( 'NONE', #923, #1223 ) ;
#155 = LINE ( 'NONE', #1306, #950 ) ;
#156 = DIRECTION ( 'NONE',  ( 0.000000000000000000, -0.000000000000000000, -1.000000000000000000 ) ) ;
#157 = ORIENTED_EDGE ( 'NONE', *, *, #386, .T. ) ;
#158 = EDGE_LOOP ( 'NONE', ( #179, #815, #1319, #874 ) ) ;
#159 = DIRECTION ( 'NONE',  ( 1.000000000000000000, 0.000000000000000000, 0.000000000000000000 ) ) ;
#160 = VERTEX_POINT ( 'NONE', #568 ) ;
#161 = VERTEX_POINT ( 'NONE', #1077 ) ;
#162 = DIRECTION ( 'NONE',  ( -0.000000000000000000, -1.000000000000000000, -0.000000000000000000 ) ) ;
#163 = ADVANCED_FACE ( 'NONE', ( #795 ), #249, .T. ) ;
#164 = STYLED_ITEM ( 'NONE', ( #265 ), #376 ) ;
#165 = FILL_AREA_STYLE ('',( #784 ) ) ;
#166 = FILL_AREA_STYLE_COLOUR ( '', #992 ) ;
#167 = DIRECTION ( 'NONE',  ( -1.000000000000000000, -0.000000000000000000, -0.000000000000000000 ) ) ;
#168 =( NAMED_UNIT ( * ) PLANE_ANGLE_UNIT ( ) SI_UNIT ( $, .RADIAN. ) );
#169 = PRESENTATION_STYLE_ASSIGNMENT (( #1075 ) ) ;
#170 =( GEOMETRIC_REPRESENTATION_CONTEXT ( 3 ) GLOBAL_UNCERTAINTY_ASSIGNED_CONTEXT ( ( #406 ) ) GLOBAL_UNIT_ASSIGNED_CONTEXT ( ( #1090, #364, #572 ) ) REPRESENTATION_CONTEXT ( 'NONE', 'WORKASPACE' ) );
#171 = PRESENTATION_LAYER_ASSIGNMENT (  '', '', ( #826 ) ) ;
#172 = COLOUR_RGB ( '',0.7921568627450980005, 0.8196078431372548767, 0.9333333333333333481 ) ;
#173 = CARTESIAN_POINT ( 'NONE',  ( 0.000000000000000000, 0.3350000000000001310, 0.000000000000000000 ) ) ;
#174 = VECTOR ( 'NONE', #1203, 1000.000000000000000 ) ;
#175 = PLANE ( 'NONE',  #238 ) ;
#176 = CARTESIAN_POINT ( 'NONE',  ( -1.150000000000000133, -0.3649999999999999911, 1.649999999999999689 ) ) ;
#177 = PRESENTATION_STYLE_ASSIGNMENT (( #183 ) ) ;
#178 = VERTEX_POINT ( 'NONE', #676 ) ;
#179 = ORIENTED_EDGE ( 'NONE', *, *, #1182, .T. ) ;
#180 = PRESENTATION_LAYER_ASSIGNMENT (  '', '', ( #504 ) ) ;
#181 = UNCERTAINTY_MEASURE_WITH_UNIT (LENGTH_MEASURE( 1.000000000000000082E-05 ), #1052, 'distance_accuracy_value', 'NONE');
#182 = CARTESIAN_POINT ( 'NONE',  ( 1.649999999999999689, -0.3649999999999999911, 1.649999999999999689 ) ) ;
#183 = SURFACE_STYLE_USAGE ( .BOTH. , #912 ) ;
#184 = DIRECTION ( 'NONE',  ( 1.000000000000000000, 0.000000000000000000, -6.285229985423214289E-17 ) ) ;
#185 = CARTESIAN_POINT ( 'NONE',  ( -1.650000000000000133, -0.3649999999999999911, 1.649999999999999689 ) ) ;
#186 = CARTESIAN_POINT ( 'NONE',  ( -1.294383274468767997, 0.4557142857142856829, 1.585162333948046518E-16 ) ) ;
#187 = FACE_OUTER_BOUND ( 'NONE', #1088, .T. ) ;
#188 = DIRECTION ( 'NONE',  ( 1.224646799147353207E-16, -0.000000000000000000, 1.000000000000000000 ) ) ;
#189 = CARTESIAN_POINT ( 'NONE',  ( -1.149999999999999689, -0.3149999999999999467, -1.650000000000000133 ) ) ;
#190 = DIRECTION ( 'NONE',  ( -1.000000000000000000, 0.000000000000000000, 1.257410463885769095E-16 ) ) ;
#191 = MECHANICAL_DESIGN_GEOMETRIC_PRESENTATION_REPRESENTATION (  '', ( #800 ), #142 ) ;
#192 = CIRCLE ( 'NONE', #284, 1.294383274468767997 ) ;
#193 = DIRECTION ( 'NONE',  ( -1.314184451497581259E-16, -0.000000000000000000, 1.000000000000000000 ) ) ;
#194 = VERTEX_POINT ( 'NONE', #1172 ) ;
#195 =( NAMED_UNIT ( * ) SI_UNIT ( $, .STERADIAN. ) SOLID_ANGLE_UNIT ( ) );
#196 = ORIENTED_EDGE ( 'NONE', *, *, #933, .T. ) ;
#197 = VERTEX_POINT ( 'NONE', #693 ) ;
#198 = ADVANCED_FACE ( 'NONE', ( #700 ), #460, .F. ) ;
#199 =( LENGTH_UNIT ( ) NAMED_UNIT ( * ) SI_UNIT ( .MILLI., .METRE. ) );
#200 = AXIS2_PLACEMENT_3D ( 'NONE', #856, #554, #1164 ) ;
#201 = FILL_AREA_STYLE_COLOUR ( '', #1049 ) ;
#202 = CARTESIAN_POINT ( 'NONE',  ( -1.650000000000000133, -0.2650000000000000133, 1.649999999999999689 ) ) ;
#203 = FACE_OUTER_BOUND ( 'NONE', #472, .T. ) ;
#204 = SURFACE_STYLE_USAGE ( .BOTH. , #522 ) ;
#205 = EDGE_CURVE ( 'NONE', #439, #471, #997, .T. ) ;
#206 = PRESENTATION_STYLE_ASSIGNMENT (( #788 ) ) ;
#207 = EDGE_CURVE ( 'NONE', #161, #668, #813, .T. ) ;
#208 = VECTOR ( 'NONE', #808, 1000.000000000000000 ) ;
#209 = SURFACE_STYLE_USAGE ( .BOTH. , #822 ) ;
#210 = ORIENTED_EDGE ( 'NONE', *, *, #508, .T. ) ;
#211 = ORIENTED_EDGE ( 'NONE', *, *, #641, .T. ) ;
#212 = FILL_AREA_STYLE ('',( #1050 ) ) ;
#213 = DIRECTION ( 'NONE',  ( 0.000000000000000000, 0.000000000000000000, 1.000000000000000000 ) ) ;
#214 =( GEOMETRIC_REPRESENTATION_CONTEXT ( 3 ) GLOBAL_UNCERTAINTY_ASSIGNED_CONTEXT ( ( #461 ) ) GLOBAL_UNIT_ASSIGNED_CONTEXT ( ( #46, #872, #346 ) ) REPRESENTATION_CONTEXT ( 'NONE', 'WORKASPACE' ) );
#215 = SURFACE_SIDE_STYLE ('',( #466 ) ) ;
#216 = ADVANCED_FACE ( 'NONE', ( #365 ), #1180, .F. ) ;
#217 = LINE ( 'NONE', #1214, #1008 ) ;
#218 =( NAMED_UNIT ( * ) PLANE_ANGLE_UNIT ( ) SI_UNIT ( $, .RADIAN. ) );
#219 =( NAMED_UNIT ( * ) PLANE_ANGLE_UNIT ( ) SI_UNIT ( $, .RADIAN. ) );
#220 = UNCERTAINTY_MEASURE_WITH_UNIT (LENGTH_MEASURE( 1.000000000000000082E-05 ), #946, 'distance_accuracy_value', 'NONE');
#221 = EDGE_CURVE ( 'NONE', #127, #528, #549, .T. ) ;
#222 = VECTOR ( 'NONE', #812, 1000.000000000000000 ) ;
#223 = SURFACE_STYLE_FILL_AREA ( #604 ) ;
#224 = MECHANICAL_DESIGN_GEOMETRIC_PRESENTATION_REPRESENTATION (  '', ( #866 ), #1168 ) ;
#225 = EDGE_CURVE ( 'NONE', #1002, #439, #1174, .T. ) ;
#226 = CARTESIAN_POINT ( 'NONE',  ( -1.724000000000000421, -0.2650000000000000133, -1.724000000000000199 ) ) ;
#227 = ORIENTED_EDGE ( 'NONE', *, *, #534, .F. ) ;
#228 = ORIENTED_EDGE ( 'NONE', *, *, #904, .T. ) ;
#229 = EDGE_LOOP ( 'NONE', ( #862, #984, #140, #97, #540 ) ) ;
#230 = EDGE_LOOP ( 'NONE', ( #911, #1266, #1255, #931 ) ) ;
#231 = FILL_AREA_STYLE ('',( #960 ) ) ;
#232 = VECTOR ( 'NONE', #1146, 1000.000000000000000 ) ;
#233 = PRESENTATION_LAYER_ASSIGNMENT (  '', '', ( #164 ) ) ;
#234 = CARTESIAN_POINT ( 'NONE',  ( 0.000000000000000000, -0.2650000000000000133, 0.000000000000000000 ) ) ;
#235 = COLOUR_RGB ( '',1.000000000000000000, 1.000000000000000000, 1.000000000000000000 ) ;
#236 = LINE ( 'NONE', #114, #89 ) ;
#237 = CARTESIAN_POINT ( 'NONE',  ( 0.6500000000000001332, -0.3149999999999999467, 1.649999999999999689 ) ) ;
#238 = AXIS2_PLACEMENT_3D ( 'NONE', #901, #803, #286 ) ;
#239 = STYLED_ITEM ( 'NONE', ( #742 ), #1288 ) ;
#240 = ORIENTED_EDGE ( 'NONE', *, *, #641, .F. ) ;
#241 = ORIENTED_EDGE ( 'NONE', *, *, #81, .T. ) ;
#242 = DIRECTION ( 'NONE',  ( -0.000000000000000000, 1.000000000000000000, -0.000000000000000000 ) ) ;
#243 = SURFACE_SIDE_STYLE ('',( #1112 ) ) ;
#244 = UNCERTAINTY_MEASURE_WITH_UNIT (LENGTH_MEASURE( 1.000000000000000082E-05 ), #885, 'distance_accuracy_value', 'NONE');
#245 = DIRECTION ( 'NONE',  ( 1.000000000000000000, -0.000000000000000000, -0.000000000000000000 ) ) ;
#246 = COLOUR_RGB ( '',1.000000000000000000, 1.000000000000000000, 1.000000000000000000 ) ;
#247 = DIRECTION ( 'NONE',  ( 6.285229985423214289E-17, 0.000000000000000000, 1.000000000000000000 ) ) ;
#248 = VECTOR ( 'NONE', #1278, 1000.000000000000000 ) ;
#249 = PLANE ( 'NONE',  #24 ) ;
#250 = DIRECTION ( 'NONE',  ( 0.000000000000000000, -1.000000000000000000, 0.000000000000000000 ) ) ;
#251 =( LENGTH_UNIT ( ) NAMED_UNIT ( * ) SI_UNIT ( .MILLI., .METRE. ) );
#252 = ORIENTED_EDGE ( 'NONE', *, *, #835, .T. ) ;
#253 = ORIENTED_EDGE ( 'NONE', *, *, #1216, .F. ) ;
#254 = CARTESIAN_POINT ( 'NONE',  ( -1.150000000000000133, -0.3149999999999999467, 1.649999999999999689 ) ) ;
#255 = VERTEX_POINT ( 'NONE', #182 ) ;
#256 = SURFACE_SIDE_STYLE ('',( #1262 ) ) ;
#257 = PLANE ( 'NONE',  #1115 ) ;
#258 = CARTESIAN_POINT ( 'NONE',  ( -0.6500000000000001332, -0.3649999999999999911, 1.649999999999999689 ) ) ;
#259 = VECTOR ( 'NONE', #631, 1000.000000000000000 ) ;
#260 =( LENGTH_UNIT ( ) NAMED_UNIT ( * ) SI_UNIT ( .MILLI., .METRE. ) );
#261 = MECHANICAL_DESIGN_GEOMETRIC_PRESENTATION_REPRESENTATION (  '', ( #622 ), #1083 ) ;
#262 = MECHANICAL_DESIGN_GEOMETRIC_PRESENTATION_REPRESENTATION (  '', ( #957 ), #547 ) ;
#263 =( LENGTH_UNIT ( ) NAMED_UNIT ( * ) SI_UNIT ( .MILLI., .METRE. ) );
#264 = FACE_OUTER_BOUND ( 'NONE', #737, .T. ) ;
#265 = PRESENTATION_STYLE_ASSIGNMENT (( #300 ) ) ;
#266 = EDGE_CURVE ( 'NONE', #289, #178, #732, .T. ) ;
#267 = PRESENTATION_STYLE_ASSIGNMENT (( #41 ) ) ;
#268 = CARTESIAN_POINT ( 'NONE',  ( -0.6500000000000001332, -0.3149999999999999467, 1.649999999999999689 ) ) ;
#269 = ORIENTED_EDGE ( 'NONE', *, *, #514, .F. ) ;
#270 = ORIENTED_EDGE ( 'NONE', *, *, #120, .T. ) ;
#271 = ORIENTED_EDGE ( 'NONE', *, *, #436, .T. ) ;
#272 = CLOSED_SHELL ( 'NONE', ( #1288, #110, #590, #1188, #74, #1298, #516, #837, #276, #697, #824, #942, #993, #376, #1094 ) ) ;
#273 = PLANE ( 'NONE',  #735 ) ;
#274 = EDGE_CURVE ( 'NONE', #68, #509, #1131, .T. ) ;
#275 = CARTESIAN_POINT ( 'NONE',  ( 1.149999999999999689, -0.3149999999999999467, -1.650000000000000133 ) ) ;
#276 = ADVANCED_FACE ( 'NONE', ( #1084 ), #603, .F. ) ;
#277 =( NAMED_UNIT ( * ) PLANE_ANGLE_UNIT ( ) SI_UNIT ( $, .RADIAN. ) );
#278 = UNCERTAINTY_MEASURE_WITH_UNIT (LENGTH_MEASURE( 1.000000000000000082E-05 ), #251, 'distance_accuracy_value', 'NONE');
#279 = CARTESIAN_POINT ( 'NONE',  ( 0.000000000000000000, 0.4557142857142856829, 0.000000000000000000 ) ) ;
#280 = CARTESIAN_POINT ( 'NONE',  ( -1.725000000000000311, 0.3649999999999999911, -1.725000000000000089 ) ) ;
#281 = DIRECTION ( 'NONE',  ( 1.000000000000000000, 0.000000000000000000, -1.224646799147353207E-16 ) ) ;
#282 = STYLED_ITEM ( 'NONE', ( #80 ), #71 ) ;
#283 = FILL_AREA_STYLE_COLOUR ( '', #858 ) ;
#284 = AXIS2_PLACEMENT_3D ( 'NONE', #348, #780, #135 ) ;
#285 = STYLED_ITEM ( 'NONE', ( #535 ), #1094 ) ;
#286 = DIRECTION ( 'NONE',  ( 1.314184451497581259E-16, 0.000000000000000000, 1.000000000000000000 ) ) ;
#287 = CARTESIAN_POINT ( 'NONE',  ( -1.724000000000000199, 0.2350000000000000144, 1.724999999999999867 ) ) ;
#288 =( NAMED_UNIT ( * ) SI_UNIT ( $, .STERADIAN. ) SOLID_ANGLE_UNIT ( ) );
#289 = VERTEX_POINT ( 'NONE', #989 ) ;
#290 = ORIENTED_EDGE ( 'NONE', *, *, #221, .T. ) ;
#291 = EDGE_CURVE ( 'NONE', #703, #588, #620, .T. ) ;
#292 = ADVANCED_FACE ( 'NONE', ( #1158 ), #273, .T. ) ;
#293 = DIRECTION ( 'NONE',  ( 0.000000000000000000, -0.000000000000000000, 1.000000000000000000 ) ) ;
#294 = EDGE_LOOP ( 'NONE', ( #553, #1193, #29, #241 ) ) ;
#295 = DIRECTION ( 'NONE',  ( -1.000000000000000000, -0.000000000000000000, 6.285229985423214289E-17 ) ) ;
#296 = MECHANICAL_DESIGN_GEOMETRIC_PRESENTATION_REPRESENTATION (  '', ( #504 ), #83 ) ;
#297 = MECHANICAL_DESIGN_GEOMETRIC_PRESENTATION_REPRESENTATION (  '', ( #239 ), #450 ) ;
#298 = EDGE_CURVE ( 'NONE', #1053, #1019, #925, .T. ) ;
#299 = CARTESIAN_POINT ( 'NONE',  ( -1.724000000000000199, -0.2650000000000000133, 1.723999999999999977 ) ) ;
#300 = SURFACE_STYLE_USAGE ( .BOTH. , #396 ) ;
#301 = EDGE_CURVE ( 'NONE', #471, #1318, #1064, .T. ) ;
#302 = LINE ( 'NONE', #1232, #1093 ) ;
#303 = PRESENTATION_STYLE_ASSIGNMENT (( #1201 ) ) ;
#304 =( NAMED_UNIT ( * ) PLANE_ANGLE_UNIT ( ) SI_UNIT ( $, .RADIAN. ) );
#305 = EDGE_CURVE ( 'NONE', #684, #1245, #857, .T. ) ;
#306 = VECTOR ( 'NONE', #247, 1000.000000000000000 ) ;
#307 = DIRECTION ( 'NONE',  ( 0.000000000000000000, 0.000000000000000000, 1.000000000000000000 ) ) ;
#308 = AXIS2_PLACEMENT_3D ( 'NONE', #659, #561, #1091 ) ;
#309 = PRESENTATION_STYLE_ASSIGNMENT (( #20 ) ) ;
#310 = UNCERTAINTY_MEASURE_WITH_UNIT (LENGTH_MEASURE( 1.000000000000000082E-05 ), #199, 'distance_accuracy_value', 'NONE');
#311 = DIRECTION ( 'NONE',  ( -6.285229985423214289E-17, -0.000000000000000000, -1.000000000000000000 ) ) ;
#312 = DIRECTION ( 'NONE',  ( 1.000000000000000000, 0.000000000000000000, -0.000000000000000000 ) ) ;
#313 = VERTEX_POINT ( 'NONE', #799 ) ;
#314 = ORIENTED_EDGE ( 'NONE', *, *, #904, .F. ) ;
#315 = ORIENTED_EDGE ( 'NONE', *, *, #489, .F. ) ;
#316 = VERTEX_POINT ( 'NONE', #176 ) ;
#317 = SURFACE_STYLE_USAGE ( .BOTH. , #918 ) ;
#318 = STYLED_ITEM ( 'NONE', ( #1274 ), #837 ) ;
#319 = EDGE_CURVE ( 'NONE', #927, #194, #383, .T. ) ;
#320 = AXIS2_PLACEMENT_3D ( 'NONE', #501, #1150, #745 ) ;
#321 = DIRECTION ( 'NONE',  ( -1.000000000000000000, 0.000000000000000000, 0.000000000000000000 ) ) ;
#322 =( LENGTH_UNIT ( ) NAMED_UNIT ( * ) SI_UNIT ( .MILLI., .METRE. ) );
#323 = SURFACE_STYLE_FILL_AREA ( #713 ) ;
#324 = PLANE ( 'NONE',  #355 ) ;
#325 = EDGE_CURVE ( 'NONE', #1258, #1002, #112, .T. ) ;
#326 = AXIS2_PLACEMENT_3D ( 'NONE', #773, #1194, #1272 ) ;
#327 = VECTOR ( 'NONE', #539, 1000.000000000000000 ) ;
#328 = EDGE_CURVE ( 'NONE', #339, #703, #136, .T. ) ;
#329 = PRESENTATION_STYLE_ASSIGNMENT (( #1267 ) ) ;
#330 = ORIENTED_EDGE ( 'NONE', *, *, #876, .F. ) ;
#331 =( LENGTH_UNIT ( ) NAMED_UNIT ( * ) SI_UNIT ( .MILLI., .METRE. ) );
#332 = SURFACE_SIDE_STYLE ('',( #1218 ) ) ;
#333 = MECHANICAL_DESIGN_GEOMETRIC_PRESENTATION_REPRESENTATION (  '', ( #612 ), #843 ) ;
#334 = SURFACE_STYLE_FILL_AREA ( #407 ) ;
#335 = DIRECTION ( 'NONE',  ( -0.000000000000000000, -1.000000000000000000, -0.000000000000000000 ) ) ;
#336 = STYLED_ITEM ( 'NONE', ( #838 ), #824 ) ;
#337 = AXIS2_PLACEMENT_3D ( 'NONE', #1, #1327, #512 ) ;
#338 = FILL_AREA_STYLE ('',( #1260 ) ) ;
#339 = VERTEX_POINT ( 'NONE', #896 ) ;
#340 = ORIENTED_EDGE ( 'NONE', *, *, #1253, .T. ) ;
#341 = ORIENTED_EDGE ( 'NONE', *, *, #298, .F. ) ;
#342 = EDGE_LOOP ( 'NONE', ( #490, #952, #720, #584 ) ) ;
#343 = FILL_AREA_STYLE ('',( #709 ) ) ;
#344 = CARTESIAN_POINT ( 'NONE',  ( 0.000000000000000000, 0.3649999999999999911, 1.393951218658673330 ) ) ;
#345 = FACE_OUTER_BOUND ( 'NONE', #158, .T. ) ;
#346 =( NAMED_UNIT ( * ) SI_UNIT ( $, .STERADIAN. ) SOLID_ANGLE_UNIT ( ) );
#347 = DIRECTION ( 'NONE',  ( 1.000000000000000000, 0.000000000000000000, 0.000000000000000000 ) ) ;
#348 = CARTESIAN_POINT ( 'NONE',  ( 0.000000000000000000, 0.4557142857142856829, 0.000000000000000000 ) ) ;
#349 = PRESENTATION_LAYER_ASSIGNMENT (  '', '', ( #1209 ) ) ;
#350 = FACE_OUTER_BOUND ( 'NONE', #94, .T. ) ;
#351 = ORIENTED_EDGE ( 'NONE', *, *, #207, .T. ) ;
#352 = SURFACE_STYLE_USAGE ( .BOTH. , #147 ) ;
#353 = DIRECTION ( 'NONE',  ( 0.000000000000000000, 0.000000000000000000, -1.000000000000000000 ) ) ;
#354 = PRODUCT_DEFINITION_SHAPE ( 'NONE', 'NONE',  #1005 ) ;
#355 = AXIS2_PLACEMENT_3D ( 'NONE', #104, #935, #531 ) ;
#356 = MECHANICAL_DESIGN_GEOMETRIC_PRESENTATION_REPRESENTATION (  '', ( #378 ), #938 ) ;
#357 = LINE ( 'NONE', #609, #375 ) ;
#358 =( NAMED_UNIT ( * ) PLANE_ANGLE_UNIT ( ) SI_UNIT ( $, .RADIAN. ) );
#359 = VECTOR ( 'NONE', #413, 1000.000000000000000 ) ;
#360 = FILL_AREA_STYLE_COLOUR ( '', #694 ) ;
#361 = EDGE_CURVE ( 'NONE', #1228, #1192, #485, .T. ) ;
#362 = FACE_OUTER_BOUND ( 'NONE', #366, .T. ) ;
#363 = VECTOR ( 'NONE', #581, 1000.000000000000000 ) ;
#364 =( NAMED_UNIT ( * ) PLANE_ANGLE_UNIT ( ) SI_UNIT ( $, .RADIAN. ) );
#365 = FACE_OUTER_BOUND ( 'NONE', #1316, .T. ) ;
#366 = EDGE_LOOP ( 'NONE', ( #32, #157, #983, #928 ) ) ;
#367 = MECHANICAL_DESIGN_GEOMETRIC_PRESENTATION_REPRESENTATION (  '', ( #1155 ), #214 ) ;
#368 = ORIENTED_EDGE ( 'NONE', *, *, #1216, .T. ) ;
#369 = CARTESIAN_POINT ( 'NONE',  ( -1.650000000000000133, -0.2650000000000000133, 1.649999999999999689 ) ) ;
#370 = ORIENTED_EDGE ( 'NONE', *, *, #455, .F. ) ;
#371 = ADVANCED_FACE ( 'NONE', ( #1205 ), #482, .T. ) ;
#372 =( NAMED_UNIT ( * ) PLANE_ANGLE_UNIT ( ) SI_UNIT ( $, .RADIAN. ) );
#373 = DIRECTION ( 'NONE',  ( 0.000000000000000000, -1.000000000000000000, 0.000000000000000000 ) ) ;
#374 = DIRECTION ( 'NONE',  ( 1.000000000000000000, 0.000000000000000000, -1.314184451497581259E-16 ) ) ;
#375 = VECTOR ( 'NONE', #716, 1000.000000000000000 ) ;
#376 = ADVANCED_FACE ( 'NONE', ( #1243 ), #404, .F. ) ;
#377 = EDGE_CURVE ( 'NONE', #1133, #339, #1017, .T. ) ;
#378 = STYLED_ITEM ( 'NONE', ( #397 ), #1298 ) ;
#379 = COLOUR_RGB ( '',0.5019607843137254832, 1.000000000000000000, 0.5019607843137254832 ) ;
#380 = DIRECTION ( 'NONE',  ( -1.000000000000000000, -0.000000000000000000, -0.000000000000000000 ) ) ;
#381 =( NAMED_UNIT ( * ) SI_UNIT ( $, .STERADIAN. ) SOLID_ANGLE_UNIT ( ) );
#382 = DIRECTION ( 'NONE',  ( -1.257410463885769095E-16, 0.000000000000000000, -1.000000000000000000 ) ) ;
#383 = LINE ( 'NONE', #63, #698 ) ;
#384 = VECTOR ( 'NONE', #870, 1000.000000000000000 ) ;
#385 = CARTESIAN_POINT ( 'NONE',  ( 0.000000000000000000, 0.4557142857142856829, 0.000000000000000000 ) ) ;
#386 = EDGE_CURVE ( 'NONE', #439, #49, #1224, .T. ) ;
#387 = PRESENTATION_STYLE_ASSIGNMENT (( #790 ) ) ;
#388 = PLANE ( 'NONE',  #337 ) ;
#389 = STYLED_ITEM ( 'NONE', ( #303 ), #942 ) ;
#390 = VERTEX_POINT ( 'NONE', #400 ) ;
#391 = LINE ( 'NONE', #1060, #685 ) ;
#392 = DIRECTION ( 'NONE',  ( 0.000000000000000000, 0.000000000000000000, 1.000000000000000000 ) ) ;
#393 = EDGE_CURVE ( 'NONE', #859, #861, #1276, .T. ) ;
#394 = CARTESIAN_POINT ( 'NONE',  ( 1.150000000000000133, -0.3149999999999999467, 1.649999999999999689 ) ) ;
#395 =( NAMED_UNIT ( * ) SI_UNIT ( $, .STERADIAN. ) SOLID_ANGLE_UNIT ( ) );
#396 = SURFACE_SIDE_STYLE ('',( #223 ) ) ;
#397 = PRESENTATION_STYLE_ASSIGNMENT (( #1331 ) ) ;
#398 =( NAMED_UNIT ( * ) PLANE_ANGLE_UNIT ( ) SI_UNIT ( $, .RADIAN. ) );
#399 = DIRECTION ( 'NONE',  ( -0.000000000000000000, -1.000000000000000000, -0.000000000000000000 ) ) ;
#400 = CARTESIAN_POINT ( 'NONE',  ( 1.707097898097896420E-16, 0.3649999999999999911, -1.393951218658673330 ) ) ;
#401 = STYLED_ITEM ( 'NONE', ( #420 ), #276 ) ;
#402 =( NAMED_UNIT ( * ) PLANE_ANGLE_UNIT ( ) SI_UNIT ( $, .RADIAN. ) );
#403 = VECTOR ( 'NONE', #73, 1000.000000000000000 ) ;
#404 = PLANE ( 'NONE',  #727 ) ;
#405 = ORIENTED_EDGE ( 'NONE', *, *, #221, .F. ) ;
#406 = UNCERTAINTY_MEASURE_WITH_UNIT (LENGTH_MEASURE( 1.000000000000000082E-05 ), #1090, 'distance_accuracy_value', 'NONE');
#407 = FILL_AREA_STYLE ('',( #1220 ) ) ;
#408 = VERTEX_POINT ( 'NONE', #186 ) ;
#409 = ORIENTED_EDGE ( 'NONE', *, *, #555, .F. ) ;
#410 = AXIS2_PLACEMENT_3D ( 'NONE', #702, #1098, #480 ) ;
#411 = AXIS2_PLACEMENT_3D ( 'NONE', #944, #117, #1242 ) ;
#412 =( NAMED_UNIT ( * ) SI_UNIT ( $, .STERADIAN. ) SOLID_ANGLE_UNIT ( ) );
#413 = DIRECTION ( 'NONE',  ( -0.000000000000000000, -1.000000000000000000, -0.000000000000000000 ) ) ;
#414 = FILL_AREA_STYLE_COLOUR ( '', #880 ) ;
#415 = DIRECTION ( 'NONE',  ( -1.314184451497581259E-16, 0.000000000000000000, -1.000000000000000000 ) ) ;
#416 = LINE ( 'NONE', #791, #107 ) ;
#417 = PLANE ( 'NONE',  #1275 ) ;
#418 = LINE ( 'NONE', #664, #134 ) ;
#419 = COLOUR_RGB ( '',1.000000000000000000, 1.000000000000000000, 0.7529411764705882248 ) ;
#420 = PRESENTATION_STYLE_ASSIGNMENT (( #696 ) ) ;
#421 = ORIENTED_EDGE ( 'NONE', *, *, #534, .T. ) ;
#422 = UNCERTAINTY_MEASURE_WITH_UNIT (LENGTH_MEASURE( 1.000000000000000082E-05 ), #322, 'distance_accuracy_value', 'NONE');
#423 = EDGE_LOOP ( 'NONE', ( #626, #1177, #1195, #753 ) ) ;
#424 =( GEOMETRIC_REPRESENTATION_CONTEXT ( 3 ) GLOBAL_UNCERTAINTY_ASSIGNED_CONTEXT ( ( #244 ) ) GLOBAL_UNIT_ASSIGNED_CONTEXT ( ( #885, #358, #1089 ) ) REPRESENTATION_CONTEXT ( 'NONE', 'WORKASPACE' ) );
#425 = FILL_AREA_STYLE ('',( #621 ) ) ;
#426 = AXIS2_PLACEMENT_3D ( 'NONE', #1197, #1099, #392 ) ;
#427 = EDGE_CURVE ( 'NONE', #752, #1318, #154, .T. ) ;
#428 = CARTESIAN_POINT ( 'NONE',  ( 1.650000000000000133, -0.3649999999999999911, -1.650000000000000133 ) ) ;
#429 =( NAMED_UNIT ( * ) PLANE_ANGLE_UNIT ( ) SI_UNIT ( $, .RADIAN. ) );
#430 = COLOUR_RGB ( '',1.000000000000000000, 1.000000000000000000, 0.000000000000000000 ) ;
#431 =( NAMED_UNIT ( * ) PLANE_ANGLE_UNIT ( ) SI_UNIT ( $, .RADIAN. ) );
#432 = LINE ( 'NONE', #548, #886 ) ;
#433 = STYLED_ITEM ( 'NONE', ( #1079 ), #697 ) ;
#434 = FILL_AREA_STYLE_COLOUR ( '', #916 ) ;
#435 = MECHANICAL_DESIGN_GEOMETRIC_PRESENTATION_REPRESENTATION (  '', ( #479 ), #1190 ) ;
#436 = EDGE_CURVE ( 'NONE', #861, #197, #1128, .T. ) ;
#437 = CARTESIAN_POINT ( 'NONE',  ( 1.650000000000000133, -0.2650000000000000133, -1.650000000000000133 ) ) ;
#438 = ORIENTED_EDGE ( 'NONE', *, *, #711, .T. ) ;
#439 = VERTEX_POINT ( 'NONE', #1215 ) ;
#440 = ORIENTED_EDGE ( 'NONE', *, *, #1273, .F. ) ;
#441 = VERTEX_POINT ( 'NONE', #507 ) ;
#442 =( NAMED_UNIT ( * ) PLANE_ANGLE_UNIT ( ) SI_UNIT ( $, .RADIAN. ) );
#443 = SURFACE_STYLE_USAGE ( .BOTH. , #61 ) ;
#444 = AXIS2_PLACEMENT_3D ( 'NONE', #280, #1297, #802 ) ;
#445 = CARTESIAN_POINT ( 'NONE',  ( -0.6500000000000001332, -0.3649999999999999911, 1.649999999999999689 ) ) ;
#446 = COLOUR_RGB ( '',1.000000000000000000, 1.000000000000000000, 0.000000000000000000 ) ;
#447 = PLANE ( 'NONE',  #1323 ) ;
#448 = COLOUR_RGB ( '',1.000000000000000000, 1.000000000000000000, 1.000000000000000000 ) ;
#449 =( GEOMETRIC_REPRESENTATION_CONTEXT ( 3 ) GLOBAL_UNCERTAINTY_ASSIGNED_CONTEXT ( ( #592 ) ) GLOBAL_UNIT_ASSIGNED_CONTEXT ( ( #87, #1028, #412 ) ) REPRESENTATION_CONTEXT ( 'NONE', 'WORKASPACE' ) );
#450 =( GEOMETRIC_REPRESENTATION_CONTEXT ( 3 ) GLOBAL_UNCERTAINTY_ASSIGNED_CONTEXT ( ( #422 ) ) GLOBAL_UNIT_ASSIGNED_CONTEXT ( ( #322, #119, #629 ) ) REPRESENTATION_CONTEXT ( 'NONE', 'WORKASPACE' ) );
#451 = DIRECTION ( 'NONE',  ( 1.000000000000000000, 0.000000000000000000, 0.000000000000000000 ) ) ;
#452 = ORIENTED_EDGE ( 'NONE', *, *, #377, .T. ) ;
#453 = ORIENTED_EDGE ( 'NONE', *, *, #44, .F. ) ;
#454 = CARTESIAN_POINT ( 'NONE',  ( -1.149999999999999689, -0.3149999999999999467, -1.650000000000000133 ) ) ;
#455 = EDGE_CURVE ( 'NONE', #1019, #390, #825, .T. ) ;
#456 = PRESENTATION_LAYER_ASSIGNMENT (  '', '', ( #389 ) ) ;
#457 = EDGE_CURVE ( 'NONE', #650, #390, #12, .T. ) ;
#458 = VECTOR ( 'NONE', #295, 1000.000000000000000 ) ;
#459 = DIRECTION ( 'NONE',  ( -0.000000000000000000, -0.000000000000000000, 1.000000000000000000 ) ) ;
#460 = PLANE ( 'NONE',  #1092 ) ;
#461 = UNCERTAINTY_MEASURE_WITH_UNIT (LENGTH_MEASURE( 1.000000000000000082E-05 ), #46, 'distance_accuracy_value', 'NONE');
#462 = VECTOR ( 'NONE', #347, 1000.000000000000000 ) ;
#463 = DIRECTION ( 'NONE',  ( 0.000000000000000000, -1.000000000000000000, 0.000000000000000000 ) ) ;
#464 = FACE_OUTER_BOUND ( 'NONE', #423, .T. ) ;
#465 = SURFACE_SIDE_STYLE ('',( #936 ) ) ;
#466 = SURFACE_STYLE_FILL_AREA ( #212 ) ;
#467 = CARTESIAN_POINT ( 'NONE',  ( 1.150000000000000133, -0.3149999999999999467, 1.649999999999999689 ) ) ;
#468 = VECTOR ( 'NONE', #724, 1000.000000000000000 ) ;
#469 =( GEOMETRIC_REPRESENTATION_CONTEXT ( 3 ) GLOBAL_UNCERTAINTY_ASSIGNED_CONTEXT ( ( #1296 ) ) GLOBAL_UNIT_ASSIGNED_CONTEXT ( ( #883, #969, #981 ) ) REPRESENTATION_CONTEXT ( 'NONE', 'WORKASPACE' ) );
#470 = VECTOR ( 'NONE', #1107, 1000.000000000000000 ) ;
#471 = VERTEX_POINT ( 'NONE', #1117 ) ;
#472 = EDGE_LOOP ( 'NONE', ( #227, #623, #541, #270, #847, #748, #405, #1106, #1040, #1054, #982, #409 ) ) ;
#473 = CARTESIAN_POINT ( 'NONE',  ( 0.000000000000000000, 0.3649999999999999911, 0.000000000000000000 ) ) ;
#474 = ORIENTED_EDGE ( 'NONE', *, *, #681, .T. ) ;
#475 = ORIENTED_EDGE ( 'NONE', *, *, #146, .T. ) ;
#476 = DIRECTION ( 'NONE',  ( -0.000000000000000000, 1.000000000000000000, -0.000000000000000000 ) ) ;
#477 = PLANE ( 'NONE',  #326 ) ;
#478 = MECHANICAL_DESIGN_GEOMETRIC_PRESENTATION_REPRESENTATION (  '', ( #811 ), #756 ) ;
#479 = STYLED_ITEM ( 'NONE', ( #496 ), #807 ) ;
#480 = DIRECTION ( 'NONE',  ( -1.000000000000000000, 0.000000000000000000, 0.000000000000000000 ) ) ;
#481 = COLOUR_RGB ( '',1.000000000000000000, 1.000000000000000000, 0.7529411764705882248 ) ;
#482 = PLANE ( 'NONE',  #520 ) ;
#483 = CARTESIAN_POINT ( 'NONE',  ( 1.150000000000000133, -0.3149999999999999467, 1.649999999999999689 ) ) ;
#484 = ADVANCED_FACE ( 'NONE', ( #1063 ), #1024, .F. ) ;
#485 = LINE ( 'NONE', #58, #363 ) ;
#486 = CARTESIAN_POINT ( 'NONE',  ( 1.724000000000000421, 0.2350000000000000144, 1.723999999999999977 ) ) ;
#487 = FILL_AREA_STYLE_COLOUR ( '', #1130 ) ;
#488 = SURFACE_STYLE_FILL_AREA ( #774 ) ;
#489 = EDGE_CURVE ( 'NONE', #1192, #563, #26, .T. ) ;
#490 = ORIENTED_EDGE ( 'NONE', *, *, #34, .T. ) ;
#491 =( LENGTH_UNIT ( ) NAMED_UNIT ( * ) SI_UNIT ( .MILLI., .METRE. ) );
#492 = ORIENTED_EDGE ( 'NONE', *, *, #301, .F. ) ;
#493 = CARTESIAN_POINT ( 'NONE',  ( -1.724000000000000421, 0.000000000000000000, 1.083573649486962395E-16 ) ) ;
#494 = CARTESIAN_POINT ( 'NONE',  ( 0.6499999999999998002, -0.3149999999999999467, -1.650000000000000133 ) ) ;
#495 = DIRECTION ( 'NONE',  ( 0.000000000000000000, 0.000000000000000000, -1.000000000000000000 ) ) ;
#496 = PRESENTATION_STYLE_ASSIGNMENT (( #532 ) ) ;
#497 = DIRECTION ( 'NONE',  ( 1.257410463885769095E-16, -0.000000000000000000, 1.000000000000000000 ) ) ;
#498 = AXIS2_PLACEMENT_3D ( 'NONE', #279, #705, #902 ) ;
#499 = PRESENTATION_STYLE_ASSIGNMENT (( #616 ) ) ;
#500 = CARTESIAN_POINT ( 'NONE',  ( 1.725000000000000311, 0.3649999999999999911, 1.724999999999999867 ) ) ;
#501 = CARTESIAN_POINT ( 'NONE',  ( 0.000000000000000000, 0.4649999999999999689, 0.000000000000000000 ) ) ;
#502 = CARTESIAN_POINT ( 'NONE',  ( 0.000000000000000000, 0.3649999999999999911, 0.000000000000000000 ) ) ;
#503 = DIRECTION ( 'NONE',  ( 0.000000000000000000, -0.000000000000000000, -1.000000000000000000 ) ) ;
#504 = STYLED_ITEM ( 'NONE', ( #43 ), #749 ) ;
#505 = ORIENTED_EDGE ( 'NONE', *, *, #457, .T. ) ;
#506 = ORIENTED_EDGE ( 'NONE', *, *, #489, .T. ) ;
#507 = CARTESIAN_POINT ( 'NONE',  ( 1.150000000000000133, -0.3649999999999999911, 1.649999999999999689 ) ) ;
#508 = EDGE_CURVE ( 'NONE', #128, #650, #948, .T. ) ;
#509 = VERTEX_POINT ( 'NONE', #845 ) ;
#510 = EDGE_LOOP ( 'NONE', ( #551, #1022, #19, #1257 ) ) ;
#511 = UNCERTAINTY_MEASURE_WITH_UNIT (LENGTH_MEASURE( 1.000000000000000082E-05 ), #491, 'distance_accuracy_value', 'NONE');
#512 = DIRECTION ( 'NONE',  ( -1.000000000000000000, 0.000000000000000000, -0.000000000000000000 ) ) ;
#513 =( LENGTH_UNIT ( ) NAMED_UNIT ( * ) SI_UNIT ( .MILLI., .METRE. ) );
#514 = EDGE_CURVE ( 'NONE', #1192, #895, #1311, .T. ) ;
#515 = SURFACE_STYLE_FILL_AREA ( #830 ) ;
#516 = ADVANCED_FACE ( 'NONE', ( #521, #362 ), #417, .T. ) ;
#517 = PLANE ( 'NONE',  #801 ) ;
#518 = LINE ( 'NONE', #299, #259 ) ;
#519 = DIRECTION ( 'NONE',  ( 1.224646799147353207E-16, 0.000000000000000000, -1.000000000000000000 ) ) ;
#520 = AXIS2_PLACEMENT_3D ( 'NONE', #1033, #1126, #1320 ) ;
#521 = FACE_BOUND ( 'NONE', #1023, .T. ) ;
#522 = SURFACE_SIDE_STYLE ('',( #1152 ) ) ;
#523 = APPLICATION_CONTEXT ( 'automotive_design' ) ;
#524 = FILL_AREA_STYLE ('',( #1138 ) ) ;
#525 = VECTOR ( 'NONE', #451, 1000.000000000000000 ) ;
#526 =( LENGTH_UNIT ( ) NAMED_UNIT ( * ) SI_UNIT ( .MILLI., .METRE. ) );
#527 = ORIENTED_EDGE ( 'NONE', *, *, #146, .F. ) ;
#528 = VERTEX_POINT ( 'NONE', #1248 ) ;
#529 = PRESENTATION_LAYER_ASSIGNMENT (  '', '', ( #1155 ) ) ;
#530 = PRESENTATION_LAYER_ASSIGNMENT (  '', '', ( #102 ) ) ;
#531 = DIRECTION ( 'NONE',  ( 1.257045997084642858E-16, 0.000000000000000000, 1.000000000000000000 ) ) ;
#532 = SURFACE_STYLE_USAGE ( .BOTH. , #1141 ) ;
#533 = DIRECTION ( 'NONE',  ( -0.000000000000000000, 1.000000000000000000, -0.000000000000000000 ) ) ;
#534 = EDGE_CURVE ( 'NONE', #316, #1228, #236, .T. ) ;
#535 = PRESENTATION_STYLE_ASSIGNMENT (( #204 ) ) ;
#536 = AXIS2_PLACEMENT_3D ( 'NONE', #908, #188, #281 ) ;
#537 = APPLICATION_PROTOCOL_DEFINITION ( 'draft international standard', 'automotive_design', 1998, #113 ) ;
#538 = CARTESIAN_POINT ( 'NONE',  ( 1.723999999999999977, 0.2350000000000000144, -1.724000000000000421 ) ) ;
#539 = DIRECTION ( 'NONE',  ( 1.314184451497581259E-16, -0.000000000000000000, 1.000000000000000000 ) ) ;
#540 = ORIENTED_EDGE ( 'NONE', *, *, #132, .F. ) ;
#541 = ORIENTED_EDGE ( 'NONE', *, *, #266, .F. ) ;
#542 = ORIENTED_EDGE ( 'NONE', *, *, #301, .T. ) ;
#543 =( GEOMETRIC_REPRESENTATION_CONTEXT ( 3 ) GLOBAL_UNCERTAINTY_ASSIGNED_CONTEXT ( ( #511 ) ) GLOBAL_UNIT_ASSIGNED_CONTEXT ( ( #491, #701, #1204 ) ) REPRESENTATION_CONTEXT ( 'NONE', 'WORKASPACE' ) );
#544 =( LENGTH_UNIT ( ) NAMED_UNIT ( * ) SI_UNIT ( .MILLI., .METRE. ) );
#545 = PLANE ( 'NONE',  #922 ) ;
#546 = UNCERTAINTY_MEASURE_WITH_UNIT (LENGTH_MEASURE( 1.000000000000000082E-05 ), #526, 'distance_accuracy_value', 'NONE');
#547 =( GEOMETRIC_REPRESENTATION_CONTEXT ( 3 ) GLOBAL_UNCERTAINTY_ASSIGNED_CONTEXT ( ( #546 ) ) GLOBAL_UNIT_ASSIGNED_CONTEXT ( ( #526, #728, #90 ) ) REPRESENTATION_CONTEXT ( 'NONE', 'WORKASPACE' ) );
#548 = CARTESIAN_POINT ( 'NONE',  ( 1.649999999999999689, -0.3649999999999999911, 1.649999999999999689 ) ) ;
#549 = LINE ( 'NONE', #467, #1035 ) ;
#550 = VERTEX_POINT ( 'NONE', #428 ) ;
#551 = ORIENTED_EDGE ( 'NONE', *, *, #1173, .T. ) ;
#552 = ORIENTED_EDGE ( 'NONE', *, *, #427, .T. ) ;
#553 = ORIENTED_EDGE ( 'NONE', *, *, #1253, .F. ) ;
#554 = DIRECTION ( 'NONE',  ( 1.000000000000000000, -0.000000000000000000, 1.314184451497581259E-16 ) ) ;
#555 = EDGE_CURVE ( 'NONE', #1228, #1132, #1156, .T. ) ;
#556 = CARTESIAN_POINT ( 'NONE',  ( 1.149999999999999689, -0.3649999999999999911, -1.650000000000000133 ) ) ;
#557 = MECHANICAL_DESIGN_GEOMETRIC_PRESENTATION_REPRESENTATION (  '', ( #821 ), #543 ) ;
#558 = PRESENTATION_LAYER_ASSIGNMENT (  '', '', ( #285 ) ) ;
#559 = CARTESIAN_POINT ( 'NONE',  ( -1.150000000000000133, -0.3649999999999999911, 1.649999999999999689 ) ) ;
#560 = LINE ( 'NONE', #275, #470 ) ;
#561 = DIRECTION ( 'NONE',  ( 1.000000000000000000, 0.000000000000000000, 1.314184451497581259E-16 ) ) ;
#562 = EDGE_LOOP ( 'NONE', ( #79, #542, #1135, #831 ) ) ;
#563 = VERTEX_POINT ( 'NONE', #1147 ) ;
#564 = MECHANICAL_DESIGN_GEOMETRIC_PRESENTATION_REPRESENTATION (  '', ( #852 ), #13 ) ;
#565 =( LENGTH_UNIT ( ) NAMED_UNIT ( * ) SI_UNIT ( .MILLI., .METRE. ) );
#566 = DIRECTION ( 'NONE',  ( -0.000000000000000000, -1.000000000000000000, -0.000000000000000000 ) ) ;
#567 = EDGE_CURVE ( 'NONE', #892, #441, #1034, .T. ) ;
#568 = CARTESIAN_POINT ( 'NONE',  ( -1.724000000000000421, 0.2350000000000000144, -1.724000000000000199 ) ) ;
#569 = MECHANICAL_DESIGN_GEOMETRIC_PRESENTATION_REPRESENTATION (  '', ( #1057 ), #33 ) ;
#570 = PRESENTATION_LAYER_ASSIGNMENT (  '', '', ( #239 ) ) ;
#571 = CARTESIAN_POINT ( 'NONE',  ( 0.000000000000000000, -0.3649999999999999911, 0.000000000000000000 ) ) ;
#572 =( NAMED_UNIT ( * ) SI_UNIT ( $, .STERADIAN. ) SOLID_ANGLE_UNIT ( ) );
#573 = SURFACE_STYLE_FILL_AREA ( #343 ) ;
#574 = FILL_AREA_STYLE ('',( #283 ) ) ;
#575 = EDGE_CURVE ( 'NONE', #528, #68, #871, .T. ) ;
#576 = PLANE ( 'NONE',  #444 ) ;
#577 = LINE ( 'NONE', #258, #1032 ) ;
#578 =( NAMED_UNIT ( * ) PLANE_ANGLE_UNIT ( ) SI_UNIT ( $, .RADIAN. ) );
#579 = PRESENTATION_LAYER_ASSIGNMENT (  '', '', ( #852 ) ) ;
#580 = EDGE_CURVE ( 'NONE', #178, #316, #1292, .T. ) ;
#581 = DIRECTION ( 'NONE',  ( 1.314184451497581259E-16, 0.000000000000000000, -1.000000000000000000 ) ) ;
#582 = PRESENTATION_STYLE_ASSIGNMENT (( #719 ) ) ;
#583 = MECHANICAL_DESIGN_GEOMETRIC_PRESENTATION_REPRESENTATION (  '', ( #164 ), #751 ) ;
#584 = ORIENTED_EDGE ( 'NONE', *, *, #266, .T. ) ;
#585 = ORIENTED_EDGE ( 'NONE', *, *, #85, .T. ) ;
#586 = SURFACE_SIDE_STYLE ('',( #975 ) ) ;
#587 = VERTEX_POINT ( 'NONE', #538 ) ;
#588 = VERTEX_POINT ( 'NONE', #226 ) ;
#589 = DIRECTION ( 'NONE',  ( -1.000000000000000000, 0.000000000000000000, 0.000000000000000000 ) ) ;
#590 = ADVANCED_FACE ( 'NONE', ( #789 ), #324, .F. ) ;
#591 = DIRECTION ( 'NONE',  ( -0.000000000000000000, -1.000000000000000000, -0.000000000000000000 ) ) ;
#592 = UNCERTAINTY_MEASURE_WITH_UNIT (LENGTH_MEASURE( 1.000000000000000082E-05 ), #87, 'distance_accuracy_value', 'NONE');
#593 = FILL_AREA_STYLE ('',( #899 ) ) ;
#594 = SURFACE_SIDE_STYLE ('',( #909 ) ) ;
#595 = CIRCLE ( 'NONE', #536, 1.300000000000000044 ) ;
#596 = FILL_AREA_STYLE ('',( #487 ) ) ;
#597 = VECTOR ( 'NONE', #245, 1000.000000000000000 ) ;
#598 = CARTESIAN_POINT ( 'NONE',  ( 1.150000000000000133, -0.3149999999999999467, 1.649999999999999689 ) ) ;
#599 = VECTOR ( 'NONE', #945, 1000.000000000000000 ) ;
#600 = PLANE ( 'NONE',  #943 ) ;
#601 = SURFACE_SIDE_STYLE ('',( #836 ) ) ;
#602 = STYLED_ITEM ( 'NONE', ( #841 ), #590 ) ;
#603 = TOROIDAL_SURFACE ( 'NONE', #426, 1.393951218658673330, 0.1000000000000000056 ) ;
#604 = FILL_AREA_STYLE ('',( #1187 ) ) ;
#605 = ORIENTED_EDGE ( 'NONE', *, *, #1061, .T. ) ;
#606 = EDGE_LOOP ( 'NONE', ( #492, #228, #340, #552 ) ) ;
#607 =( LENGTH_UNIT ( ) NAMED_UNIT ( * ) SI_UNIT ( .MILLI., .METRE. ) );
#608 = SURFACE_SIDE_STYLE ('',( #149 ) ) ;
#609 = CARTESIAN_POINT ( 'NONE',  ( 1.723999999999999977, -0.2650000000000000133, -1.724000000000000199 ) ) ;
#610 = LINE ( 'NONE', #2, #105 ) ;
#611 = SURFACE_STYLE_USAGE ( .BOTH. , #929 ) ;
#612 = STYLED_ITEM ( 'NONE', ( #206 ), #292 ) ;
#613 = SURFACE_STYLE_FILL_AREA ( #1021 ) ;
#614 = PRESENTATION_STYLE_ASSIGNMENT (( #1007 ) ) ;
#615 =( NAMED_UNIT ( * ) SI_UNIT ( $, .STERADIAN. ) SOLID_ANGLE_UNIT ( ) );
#616 = SURFACE_STYLE_USAGE ( .BOTH. , #1226 ) ;
#617 = PRESENTATION_STYLE_ASSIGNMENT (( #1062 ) ) ;
#618 = SURFACE_SIDE_STYLE ('',( #92 ) ) ;
#619 = VECTOR ( 'NONE', #415, 1000.000000000000000 ) ;
#620 = LINE ( 'NONE', #793, #747 ) ;
#621 = FILL_AREA_STYLE_COLOUR ( '', #430 ) ;
#622 = STYLED_ITEM ( 'NONE', ( #617 ), #636 ) ;
#623 = ORIENTED_EDGE ( 'NONE', *, *, #580, .F. ) ;
#624 = MECHANICAL_DESIGN_GEOMETRIC_PRESENTATION_REPRESENTATION (  '', ( #718 ), #8 ) ;
#625 = VECTOR ( 'NONE', #1277, 1000.000000000000000 ) ;
#626 = ORIENTED_EDGE ( 'NONE', *, *, #291, .F. ) ;
#627 = EDGE_LOOP ( 'NONE', ( #1051, #1055, #1283, #271 ) ) ;
#628 = DIRECTION ( 'NONE',  ( -1.000000000000000000, 0.000000000000000000, -0.000000000000000000 ) ) ;
#629 =( NAMED_UNIT ( * ) SI_UNIT ( $, .STERADIAN. ) SOLID_ANGLE_UNIT ( ) );
#630 = CARTESIAN_POINT ( 'NONE',  ( 1.150000000000000133, -0.3649999999999999911, 1.649999999999999689 ) ) ;
#631 = DIRECTION ( 'NONE',  ( -0.000000000000000000, -1.000000000000000000, -0.000000000000000000 ) ) ;
#632 = EDGE_CURVE ( 'NONE', #550, #255, #122, .T. ) ;
#633 = FILL_AREA_STYLE ('',( #434 ) ) ;
#634 = SURFACE_STYLE_FILL_AREA ( #524 ) ;
#635 = SURFACE_STYLE_FILL_AREA ( #165 ) ;
#636 = ADVANCED_FACE ( 'NONE', ( #903 ), #40, .F. ) ;
#637 = ORIENTED_EDGE ( 'NONE', *, *, #225, .F. ) ;
#638 = CARTESIAN_POINT ( 'NONE',  ( -1.725000000000000311, 0.2350000000000000144, -1.724999999999999867 ) ) ;
#639 = COLOUR_RGB ( '',1.000000000000000000, 1.000000000000000000, 0.7529411764705882248 ) ;
#640 = PRESENTATION_LAYER_ASSIGNMENT (  '', '', ( #612 ) ) ;
#641 = EDGE_CURVE ( 'NONE', #927, #339, #418, .T. ) ;
#642 = CARTESIAN_POINT ( 'NONE',  ( -1.650000000000000133, -0.3649999999999999911, 1.649999999999999689 ) ) ;
#643 = DIRECTION ( 'NONE',  ( 1.000000000000000000, 0.000000000000000000, 0.000000000000000000 ) ) ;
#644 = DIRECTION ( 'NONE',  ( 1.000000000000000000, 0.000000000000000000, 0.000000000000000000 ) ) ;
#645 = VECTOR ( 'NONE', #399, 1000.000000000000000 ) ;
#646 = LINE ( 'NONE', #96, #359 ) ;
#647 = PRESENTATION_LAYER_ASSIGNMENT (  '', '', ( #622 ) ) ;
#648 = EDGE_CURVE ( 'NONE', #68, #722, #995, .T. ) ;
#649 = UNCERTAINTY_MEASURE_WITH_UNIT (LENGTH_MEASURE( 1.000000000000000082E-05 ), #1070, 'distance_accuracy_value', 'NONE');
#650 = VERTEX_POINT ( 'NONE', #344 ) ;
#651 = ORIENTED_EDGE ( 'NONE', *, *, #835, .F. ) ;
#652 = STYLED_ITEM ( 'NONE', ( #1087 ), #56 ) ;
#653 = FILL_AREA_STYLE_COLOUR ( '', #639 ) ;
#654 = STYLED_ITEM ( 'NONE', ( #329 ), #198 ) ;
#655 = CARTESIAN_POINT ( 'NONE',  ( -1.724000000000000421, -0.2650000000000000133, -1.724000000000000199 ) ) ;
#656 = LINE ( 'NONE', #189, #645 ) ;
#657 = DIRECTION ( 'NONE',  ( -0.000000000000000000, -1.000000000000000000, -0.000000000000000000 ) ) ;
#658 = LINE ( 'NONE', #486, #678 ) ;
#659 = CARTESIAN_POINT ( 'NONE',  ( -1.650000000000000133, -0.3649999999999999911, 1.649999999999999689 ) ) ;
#660 = FACE_OUTER_BOUND ( 'NONE', #779, .T. ) ;
#661 = MECHANICAL_DESIGN_GEOMETRIC_PRESENTATION_REPRESENTATION (  '', ( #401 ), #710 ) ;
#662 = PRESENTATION_LAYER_ASSIGNMENT (  '', '', ( #378 ) ) ;
#663 = SURFACE_STYLE_FILL_AREA ( #231 ) ;
#664 = CARTESIAN_POINT ( 'NONE',  ( 1.724000000000000421, -0.2650000000000000133, 1.723999999999999977 ) ) ;
#665 = DIRECTION ( 'NONE',  ( -1.257045997084642858E-16, -0.000000000000000000, -1.000000000000000000 ) ) ;
#666 = VECTOR ( 'NONE', #878, 1000.000000000000000 ) ;
#667 = UNCERTAINTY_MEASURE_WITH_UNIT (LENGTH_MEASURE( 1.000000000000000082E-05 ), #82, 'distance_accuracy_value', 'NONE');
#668 = VERTEX_POINT ( 'NONE', #445 ) ;
#669 = ORIENTED_EDGE ( 'NONE', *, *, #34, .F. ) ;
#670 = DIRECTION ( 'NONE',  ( -0.000000000000000000, 0.000000000000000000, 1.000000000000000000 ) ) ;
#671 = EDGE_CURVE ( 'NONE', #255, #1245, #432, .T. ) ;
#672 = PRODUCT_DEFINITION_CONTEXT ( 'detailed design', #523, 'design' ) ;
#673 = DIRECTION ( 'NONE',  ( -1.000000000000000000, 0.000000000000000000, -1.314184451497581259E-16 ) ) ;
#674 =( GEOMETRIC_REPRESENTATION_CONTEXT ( 3 ) GLOBAL_UNCERTAINTY_ASSIGNED_CONTEXT ( ( #1178 ) ) GLOBAL_UNIT_ASSIGNED_CONTEXT ( ( #607, #78, #381 ) ) REPRESENTATION_CONTEXT ( 'NONE', 'WORKASPACE' ) );
#675 = SURFACE_STYLE_USAGE ( .BOTH. , #256 ) ;
#676 = CARTESIAN_POINT ( 'NONE',  ( -1.150000000000000133, -0.3149999999999999467, 1.649999999999999689 ) ) ;
#677 =( NAMED_UNIT ( * ) PLANE_ANGLE_UNIT ( ) SI_UNIT ( $, .RADIAN. ) );
#678 = VECTOR ( 'NONE', #497, 1000.000000000000000 ) ;
#679 = LINE ( 'NONE', #237, #1154 ) ;
#680 = DIRECTION ( 'NONE',  ( 0.000000000000000000, -1.000000000000000000, 0.000000000000000000 ) ) ;
#681 = EDGE_CURVE ( 'NONE', #160, #587, #744, .T. ) ;
#682 = VECTOR ( 'NONE', #827, 1000.000000000000000 ) ;
#683 = DIRECTION ( 'NONE',  ( 0.000000000000000000, 0.000000000000000000, 1.000000000000000000 ) ) ;
#684 = VERTEX_POINT ( 'NONE', #437 ) ;
#685 = VECTOR ( 'NONE', #476, 1000.000000000000000 ) ;
#686 = CLOSED_SHELL ( 'NONE', ( #71, #292, #484, #1003, #216, #806, #371, #1100, #979, #907, #56, #198, #636, #163 ) ) ;
#687 = ORIENTED_EDGE ( 'NONE', *, *, #1167, .T. ) ;
#688 =( LENGTH_UNIT ( ) NAMED_UNIT ( * ) SI_UNIT ( .MILLI., .METRE. ) );
#689 =( GEOMETRIC_REPRESENTATION_CONTEXT ( 3 ) GLOBAL_UNCERTAINTY_ASSIGNED_CONTEXT ( ( #785 ) ) GLOBAL_UNIT_ASSIGNED_CONTEXT ( ( #1300, #277, #1113 ) ) REPRESENTATION_CONTEXT ( 'NONE', 'WORKASPACE' ) );
#690 = AXIS2_PLACEMENT_3D ( 'NONE', #1015, #293, #1129 ) ;
#691 = DIRECTION ( 'NONE',  ( -1.000000000000000000, -0.000000000000000000, -0.000000000000000000 ) ) ;
#692 = CARTESIAN_POINT ( 'NONE',  ( 1.649999999999999689, -0.2650000000000000133, 1.649999999999999689 ) ) ;
#693 = CARTESIAN_POINT ( 'NONE',  ( -0.6499999999999998002, -0.3649999999999999911, -1.650000000000000133 ) ) ;
#694 = COLOUR_RGB ( '',1.000000000000000000, 1.000000000000000000, 1.000000000000000000 ) ;
#695 = COLOUR_RGB ( '',0.5019607843137254832, 1.000000000000000000, 0.5019607843137254832 ) ;
#696 = SURFACE_STYLE_USAGE ( .BOTH. , #594 ) ;
#697 = ADVANCED_FACE ( 'NONE', ( #464 ), #25, .T. ) ;
#698 = VECTOR ( 'NONE', #167, 1000.000000000000000 ) ;
#699 = EDGE_CURVE ( 'NONE', #588, #160, #88, .T. ) ;
#700 = FACE_OUTER_BOUND ( 'NONE', #930, .T. ) ;
#701 =( NAMED_UNIT ( * ) PLANE_ANGLE_UNIT ( ) SI_UNIT ( $, .RADIAN. ) );
#702 = CARTESIAN_POINT ( 'NONE',  ( 0.000000000000000000, 0.3350000000000001310, 0.000000000000000000 ) ) ;
#703 = VERTEX_POINT ( 'NONE', #854 ) ;
#704 = EDGE_LOOP ( 'NONE', ( #1210, #440, #1336, #211 ) ) ;
#705 = DIRECTION ( 'NONE',  ( 0.000000000000000000, 1.000000000000000000, 0.000000000000000000 ) ) ;
#706 =( GEOMETRIC_REPRESENTATION_CONTEXT ( 3 ) GLOBAL_UNCERTAINTY_ASSIGNED_CONTEXT ( ( #106 ) ) GLOBAL_UNIT_ASSIGNED_CONTEXT ( ( #565, #1290, #978 ) ) REPRESENTATION_CONTEXT ( 'NONE', 'WORKASPACE' ) );
#707 = FILL_AREA_STYLE ('',( #1213 ) ) ;
#708 =( NAMED_UNIT ( * ) PLANE_ANGLE_UNIT ( ) SI_UNIT ( $, .RADIAN. ) );
#709 = FILL_AREA_STYLE_COLOUR ( '', #446 ) ;
#710 =( GEOMETRIC_REPRESENTATION_CONTEXT ( 3 ) GLOBAL_UNCERTAINTY_ASSIGNED_CONTEXT ( ( #22 ) ) GLOBAL_UNIT_ASSIGNED_CONTEXT ( ( #688, #1208, #1305 ) ) REPRESENTATION_CONTEXT ( 'NONE', 'WORKASPACE' ) );
#711 = EDGE_CURVE ( 'NONE', #528, #161, #679, .T. ) ;
#712 = TOROIDAL_SURFACE ( 'NONE', #320, 1.393951218658673330, 0.1000000000000000056 ) ;
#713 = FILL_AREA_STYLE ('',( #69 ) ) ;
#714 = PRESENTATION_STYLE_ASSIGNMENT (( #987 ) ) ;
#715 = SURFACE_STYLE_FILL_AREA ( #817 ) ;
#716 = DIRECTION ( 'NONE',  ( -0.000000000000000000, -1.000000000000000000, -0.000000000000000000 ) ) ;
#717 = MECHANICAL_DESIGN_GEOMETRIC_PRESENTATION_REPRESENTATION (  '', ( #389 ), #674 ) ;
#718 = STYLED_ITEM ( 'NONE', ( #1076 ), #1003 ) ;
#719 = SURFACE_STYLE_USAGE ( .BOTH. , #618 ) ;
#720 = ORIENTED_EDGE ( 'NONE', *, *, #1081, .T. ) ;
#721 = ORIENTED_EDGE ( 'NONE', *, *, #1304, .T. ) ;
#722 = VERTEX_POINT ( 'NONE', #1264 ) ;
#723 = EDGE_LOOP ( 'NONE', ( #1280, #475, #1148, #351 ) ) ;
#724 = DIRECTION ( 'NONE',  ( 1.000000000000000000, 0.000000000000000000, 0.000000000000000000 ) ) ;
#725 =( LENGTH_UNIT ( ) NAMED_UNIT ( * ) SI_UNIT ( .MILLI., .METRE. ) );
#726 = DIRECTION ( 'NONE',  ( 0.000000000000000000, 0.000000000000000000, 1.000000000000000000 ) ) ;
#727 = AXIS2_PLACEMENT_3D ( 'NONE', #1013, #190, #1310 ) ;
#728 =( NAMED_UNIT ( * ) PLANE_ANGLE_UNIT ( ) SI_UNIT ( $, .RADIAN. ) );
#729 = CARTESIAN_POINT ( 'NONE',  ( 0.000000000000000000, 0.000000000000000000, 0.000000000000000000 ) ) ;
#730 = CARTESIAN_POINT ( 'NONE',  ( 1.649999999999999689, -0.3649999999999999911, 1.649999999999999689 ) ) ;
#731 = VECTOR ( 'NONE', #1056, 1000.000000000000000 ) ;
#732 = LINE ( 'NONE', #976, #965 ) ;
#733 = FILL_AREA_STYLE_COLOUR ( '', #246 ) ;
#734 =( NAMED_UNIT ( * ) SI_UNIT ( $, .STERADIAN. ) SOLID_ANGLE_UNIT ( ) );
#735 = AXIS2_PLACEMENT_3D ( 'NONE', #1293, #373, #783 ) ;
#736 = DIRECTION ( 'NONE',  ( -1.314184451497581259E-16, -0.000000000000000000, 1.000000000000000000 ) ) ;
#737 = EDGE_LOOP ( 'NONE', ( #1102, #860, #98, #438 ) ) ;
#738 = ORIENTED_EDGE ( 'NONE', *, *, #772, .F. ) ;
#739 = SURFACE_STYLE_USAGE ( .BOTH. , #109 ) ;
#740 = DIRECTION ( 'NONE',  ( -1.000000000000000000, 0.000000000000000000, -1.314184451497581259E-16 ) ) ;
#741 = MECHANICAL_DESIGN_GEOMETRIC_PRESENTATION_REPRESENTATION (  '', ( #318 ), #170 ) ;
#742 = PRESENTATION_STYLE_ASSIGNMENT (( #739 ) ) ;
#743 = SURFACE_STYLE_USAGE ( .BOTH. , #14 ) ;
#744 = LINE ( 'NONE', #758, #731 ) ;
#745 = DIRECTION ( 'NONE',  ( 0.000000000000000000, 0.000000000000000000, 1.000000000000000000 ) ) ;
#746 = DIRECTION ( 'NONE',  ( -0.000000000000000000, 1.000000000000000000, -0.000000000000000000 ) ) ;
#747 = VECTOR ( 'NONE', #589, 1000.000000000000000 ) ;
#748 = ORIENTED_EDGE ( 'NONE', *, *, #711, .F. ) ;
#749 = MANIFOLD_SOLID_BREP ( 'Cut-Extrude6', #272 ) ;
#750 = EDGE_CURVE ( 'NONE', #390, #650, #1127, .T. ) ;
#751 =( GEOMETRIC_REPRESENTATION_CONTEXT ( 3 ) GLOBAL_UNCERTAINTY_ASSIGNED_CONTEXT ( ( #4 ) ) GLOBAL_UNIT_ASSIGNED_CONTEXT ( ( #513, #1120, #195 ) ) REPRESENTATION_CONTEXT ( 'NONE', 'WORKASPACE' ) );
#752 = VERTEX_POINT ( 'NONE', #755 ) ;
#753 = ORIENTED_EDGE ( 'NONE', *, *, #875, .F. ) ;
#754 = FILL_AREA_STYLE ('',( #863 ) ) ;
#755 = CARTESIAN_POINT ( 'NONE',  ( -1.725000000000000089, 0.2350000000000000144, 1.724999999999999867 ) ) ;
#756 =( GEOMETRIC_REPRESENTATION_CONTEXT ( 3 ) GLOBAL_UNCERTAINTY_ASSIGNED_CONTEXT ( ( #1043 ) ) GLOBAL_UNIT_ASSIGNED_CONTEXT ( ( #915, #372, #810 ) ) REPRESENTATION_CONTEXT ( 'NONE', 'WORKASPACE' ) );
#757 =( GEOMETRIC_REPRESENTATION_CONTEXT ( 3 ) GLOBAL_UNCERTAINTY_ASSIGNED_CONTEXT ( ( #1165 ) ) GLOBAL_UNIT_ASSIGNED_CONTEXT ( ( #1322, #1010, #926 ) ) REPRESENTATION_CONTEXT ( 'NONE', 'WORKASPACE' ) );
#758 = CARTESIAN_POINT ( 'NONE',  ( 1.723999999999999977, 0.2350000000000000144, -1.724000000000000199 ) ) ;
#759 = PRESENTATION_STYLE_ASSIGNMENT (( #611 ) ) ;
#760 = DIRECTION ( 'NONE',  ( 0.000000000000000000, -0.000000000000000000, -1.000000000000000000 ) ) ;
#761 = COLOUR_RGB ( '',1.000000000000000000, 1.000000000000000000, 0.000000000000000000 ) ;
#762 = FILL_AREA_STYLE_COLOUR ( '', #792 ) ;
#763 = ORIENTED_EDGE ( 'NONE', *, *, #958, .F. ) ;
#764 = ORIENTED_EDGE ( 'NONE', *, *, #933, .F. ) ;
#765 = EDGE_CURVE ( 'NONE', #197, #668, #577, .T. ) ;
#766 =( NAMED_UNIT ( * ) PLANE_ANGLE_UNIT ( ) SI_UNIT ( $, .RADIAN. ) );
#767 = CARTESIAN_POINT ( 'NONE',  ( 1.150000000000000133, -0.3149999999999999467, 1.649999999999999689 ) ) ;
#768 = LINE ( 'NONE', #819, #1309 ) ;
#769 = CARTESIAN_POINT ( 'NONE',  ( 1.724999999999999867, 0.3649999999999999911, -1.725000000000000089 ) ) ;
#770 = SURFACE_STYLE_FILL_AREA ( #778 ) ;
#771 = AXIS2_PLACEMENT_3D ( 'NONE', #173, #991, #998 ) ;
#772 = EDGE_CURVE ( 'NONE', #316, #895, #1329, .T. ) ;
#773 = CARTESIAN_POINT ( 'NONE',  ( -1.724000000000000421, 0.2350000000000000144, -1.724999999999999867 ) ) ;
#774 = FILL_AREA_STYLE ('',( #144 ) ) ;
#775 = FILL_AREA_STYLE ('',( #653 ) ) ;
#776 = ORIENTED_EDGE ( 'NONE', *, *, #772, .T. ) ;
#777 = ORIENTED_EDGE ( 'NONE', *, *, #567, .F. ) ;
#778 = FILL_AREA_STYLE ('',( #974 ) ) ;
#779 = EDGE_LOOP ( 'NONE', ( #763, #196, #1137, #1001 ) ) ;
#780 = DIRECTION ( 'NONE',  ( 0.000000000000000000, 1.000000000000000000, 0.000000000000000000 ) ) ;
#781 = PRESENTATION_LAYER_ASSIGNMENT (  '', '', ( #866 ) ) ;
#782 = FILL_AREA_STYLE ('',( #879 ) ) ;
#783 = DIRECTION ( 'NONE',  ( 0.000000000000000000, -0.000000000000000000, -1.000000000000000000 ) ) ;
#784 = FILL_AREA_STYLE_COLOUR ( '', #910 ) ;
#785 = UNCERTAINTY_MEASURE_WITH_UNIT (LENGTH_MEASURE( 1.000000000000000082E-05 ), #1300, 'distance_accuracy_value', 'NONE');
#786 = CARTESIAN_POINT ( 'NONE',  ( 0.000000000000000000, 0.4557142857142856829, 0.000000000000000000 ) ) ;
#787 = FACE_BOUND ( 'NONE', #230, .T. ) ;
#788 = SURFACE_STYLE_USAGE ( .BOTH. , #900 ) ;
#789 = FACE_OUTER_BOUND ( 'NONE', #1069, .T. ) ;
#790 = SURFACE_STYLE_USAGE ( .BOTH. , #891 ) ;
#791 = CARTESIAN_POINT ( 'NONE',  ( -1.725000000000000311, 0.3649999999999999911, -1.725000000000000089 ) ) ;
#792 = COLOUR_RGB ( '',1.000000000000000000, 1.000000000000000000, 0.7529411764705882248 ) ;
#793 = CARTESIAN_POINT ( 'NONE',  ( 1.723999999999999977, -0.2650000000000000133, -1.724000000000000199 ) ) ;
#794 = ORIENTED_EDGE ( 'NONE', *, *, #85, .F. ) ;
#795 = FACE_OUTER_BOUND ( 'NONE', #342, .T. ) ;
#796 = FILL_AREA_STYLE_COLOUR ( '', #761 ) ;
#797 = EDGE_LOOP ( 'NONE', ( #290, #818, #65, #31 ) ) ;
#798 = SURFACE_SIDE_STYLE ('',( #1202 ) ) ;
#799 = CARTESIAN_POINT ( 'NONE',  ( 1.725000000000000311, 0.2350000000000000144, 1.724999999999999867 ) ) ;
#800 = STYLED_ITEM ( 'NONE', ( #309 ), #516 ) ;
#801 = AXIS2_PLACEMENT_3D ( 'NONE', #1119, #833, #503 ) ;
#802 = DIRECTION ( 'NONE',  ( -6.285229985423214289E-17, 0.000000000000000000, -1.000000000000000000 ) ) ;
#803 = DIRECTION ( 'NONE',  ( -1.000000000000000000, 0.000000000000000000, 1.314184451497581259E-16 ) ) ;
#804 = FACE_OUTER_BOUND ( 'NONE', #229, .T. ) ;
#805 = CARTESIAN_POINT ( 'NONE',  ( -1.725000000000000089, 0.3649999999999999911, 1.724999999999999867 ) ) ;
#806 = ADVANCED_FACE ( 'NONE', ( #133 ), #447, .F. ) ;
#807 = ADVANCED_BREP_SHAPE_REPRESENTATION ( 'XPEAMB-L1-0000-00401', ( #749, #1222, #1103 ), #1058 ) ;
#808 = DIRECTION ( 'NONE',  ( -0.000000000000000000, -1.000000000000000000, -0.000000000000000000 ) ) ;
#809 = SPHERICAL_SURFACE ( 'NONE', #1237, 1.300000000000000044 ) ;
#810 =( NAMED_UNIT ( * ) SI_UNIT ( $, .STERADIAN. ) SOLID_ANGLE_UNIT ( ) );
#811 = STYLED_ITEM ( 'NONE', ( #714 ), #979 ) ;
#812 = DIRECTION ( 'NONE',  ( -0.000000000000000000, -1.000000000000000000, -0.000000000000000000 ) ) ;
#813 = LINE ( 'NONE', #1170, #384 ) ;
#814 = VECTOR ( 'NONE', #1211, 1000.000000000000000 ) ;
#815 = ORIENTED_EDGE ( 'NONE', *, *, #699, .F. ) ;
#816 = LINE ( 'NONE', #254, #625 ) ;
#817 = FILL_AREA_STYLE ('',( #201 ) ) ;
#818 = ORIENTED_EDGE ( 'NONE', *, *, #575, .T. ) ;
#819 = CARTESIAN_POINT ( 'NONE',  ( -0.6500000000000001332, -0.3149999999999999467, 1.649999999999999689 ) ) ;
#820 = SURFACE_STYLE_USAGE ( .BOTH. , #601 ) ;
#821 = STYLED_ITEM ( 'NONE', ( #177 ), #110 ) ;
#822 = SURFACE_SIDE_STYLE ('',( #334 ) ) ;
#823 = CARTESIAN_POINT ( 'NONE',  ( -1.149999999999999689, -0.3149999999999999467, -1.650000000000000133 ) ) ;
#824 = ADVANCED_FACE ( 'NONE', ( #1046, #787 ), #477, .F. ) ;
#825 = CIRCLE ( 'NONE', #1048, 0.1000000000000000472 ) ;
#826 = STYLED_ITEM ( 'NONE', ( #499 ), #1188 ) ;
#827 = DIRECTION ( 'NONE',  ( -1.000000000000000000, -0.000000000000000000, -0.000000000000000000 ) ) ;
#828 = ORIENTED_EDGE ( 'NONE', *, *, #958, .T. ) ;
#829 = SURFACE_STYLE_FILL_AREA ( #782 ) ;
#830 = FILL_AREA_STYLE ('',( #1236 ) ) ;
#831 = ORIENTED_EDGE ( 'NONE', *, *, #386, .F. ) ;
#832 = UNCERTAINTY_MEASURE_WITH_UNIT (LENGTH_MEASURE( 1.000000000000000082E-05 ), #260, 'distance_accuracy_value', 'NONE');
#833 = DIRECTION ( 'NONE',  ( 0.000000000000000000, -1.000000000000000000, 0.000000000000000000 ) ) ;
#834 = DIRECTION ( 'NONE',  ( 0.000000000000000000, 0.000000000000000000, 1.000000000000000000 ) ) ;
#835 = EDGE_CURVE ( 'NONE', #128, #1053, #961, .T. ) ;
#836 = SURFACE_STYLE_FILL_AREA ( #1016 ) ;
#837 = ADVANCED_FACE ( 'NONE', ( #660 ), #809, .T. ) ;
#838 = PRESENTATION_STYLE_ASSIGNMENT (( #675 ) ) ;
#839 = CARTESIAN_POINT ( 'NONE',  ( 1.649999999999999689, -0.3649999999999999911, 1.649999999999999689 ) ) ;
#840 = PRESENTATION_LAYER_ASSIGNMENT (  '', '', ( #957 ) ) ;
#841 = PRESENTATION_STYLE_ASSIGNMENT (( #743 ) ) ;
#842 = CARTESIAN_POINT ( 'NONE',  ( -1.650000000000000133, -0.2650000000000000133, 1.649999999999999689 ) ) ;
#843 =( GEOMETRIC_REPRESENTATION_CONTEXT ( 3 ) GLOBAL_UNCERTAINTY_ASSIGNED_CONTEXT ( ( #832 ) ) GLOBAL_UNIT_ASSIGNED_CONTEXT ( ( #260, #70, #1109 ) ) REPRESENTATION_CONTEXT ( 'NONE', 'WORKASPACE' ) );
#844 = LINE ( 'NONE', #1006, #208 ) ;
#845 = CARTESIAN_POINT ( 'NONE',  ( 0.6499999999999998002, -0.3649999999999999911, -1.650000000000000133 ) ) ;
#846 = ORIENTED_EDGE ( 'NONE', *, *, #361, .F. ) ;
#847 = ORIENTED_EDGE ( 'NONE', *, *, #207, .F. ) ;
#848 =( NAMED_UNIT ( * ) SI_UNIT ( $, .STERADIAN. ) SOLID_ANGLE_UNIT ( ) );
#849 = CARTESIAN_POINT ( 'NONE',  ( 0.6500000000000001332, -0.3149999999999999467, 1.649999999999999689 ) ) ;
#850 = STYLED_ITEM ( 'NONE', ( #614 ), #907 ) ;
#851 = MECHANICAL_DESIGN_GEOMETRIC_PRESENTATION_REPRESENTATION (  '', ( #826 ), #757 ) ;
#852 = STYLED_ITEM ( 'NONE', ( #387 ), #74 ) ;
#853 = EDGE_CURVE ( 'NONE', #892, #550, #1078, .T. ) ;
#854 = CARTESIAN_POINT ( 'NONE',  ( 1.723999999999999977, -0.2650000000000000133, -1.724000000000000199 ) ) ;
#855 = LINE ( 'NONE', #1270, #306 ) ;
#856 = CARTESIAN_POINT ( 'NONE',  ( -0.6500000000000001332, -0.3149999999999999467, 1.649999999999999689 ) ) ;
#857 = LINE ( 'NONE', #692, #403 ) ;
#858 = COLOUR_RGB ( '',1.000000000000000000, 1.000000000000000000, 0.000000000000000000 ) ;
#859 = VERTEX_POINT ( 'NONE', #454 ) ;
#860 = ORIENTED_EDGE ( 'NONE', *, *, #274, .F. ) ;
#861 = VERTEX_POINT ( 'NONE', #893 ) ;
#862 = ORIENTED_EDGE ( 'NONE', *, *, #91, .F. ) ;
#863 = FILL_AREA_STYLE_COLOUR ( '', #695 ) ;
#864 =( NAMED_UNIT ( * ) PLANE_ANGLE_UNIT ( ) SI_UNIT ( $, .RADIAN. ) );
#865 = MECHANICAL_DESIGN_GEOMETRIC_PRESENTATION_REPRESENTATION (  '', ( #654 ), #469 ) ;
#866 = STYLED_ITEM ( 'NONE', ( #1011 ), #1100 ) ;
#867 =( NAMED_UNIT ( * ) SI_UNIT ( $, .STERADIAN. ) SOLID_ANGLE_UNIT ( ) );
#868 = UNCERTAINTY_MEASURE_WITH_UNIT (LENGTH_MEASURE( 1.000000000000000082E-05 ), #544, 'distance_accuracy_value', 'NONE');
#869 = VECTOR ( 'NONE', #1065, 1000.000000000000000 ) ;
#870 = DIRECTION ( 'NONE',  ( -1.000000000000000000, -0.000000000000000000, -0.000000000000000000 ) ) ;
#871 = LINE ( 'NONE', #849, #619 ) ;
#872 =( NAMED_UNIT ( * ) PLANE_ANGLE_UNIT ( ) SI_UNIT ( $, .RADIAN. ) );
#873 = MECHANICAL_DESIGN_GEOMETRIC_PRESENTATION_REPRESENTATION (  '', ( #433 ), #1101 ) ;
#874 = ORIENTED_EDGE ( 'NONE', *, *, #1061, .F. ) ;
#875 = EDGE_CURVE ( 'NONE', #588, #1133, #855, .T. ) ;
#876 = EDGE_CURVE ( 'NONE', #722, #127, #10, .T. ) ;
#877 = DIRECTION ( 'NONE',  ( -1.314184451497581259E-16, -0.000000000000000000, 1.000000000000000000 ) ) ;
#878 = DIRECTION ( 'NONE',  ( -0.000000000000000000, -1.000000000000000000, -0.000000000000000000 ) ) ;
#879 = FILL_AREA_STYLE_COLOUR ( '', #1104 ) ;
#880 = COLOUR_RGB ( '',0.7921568627450980005, 0.8196078431372548767, 0.9333333333333333481 ) ;
#881 = SURFACE_STYLE_USAGE ( .BOTH. , #465 ) ;
#882 = LINE ( 'NONE', #1321, #1044 ) ;
#883 =( LENGTH_UNIT ( ) NAMED_UNIT ( * ) SI_UNIT ( .MILLI., .METRE. ) );
#884 = PRESENTATION_LAYER_ASSIGNMENT (  '', '', ( #821 ) ) ;
#885 =( LENGTH_UNIT ( ) NAMED_UNIT ( * ) SI_UNIT ( .MILLI., .METRE. ) );
#886 = VECTOR ( 'NONE', #242, 1000.000000000000000 ) ;
#887 = UNCERTAINTY_MEASURE_WITH_UNIT (LENGTH_MEASURE( 1.000000000000000082E-05 ), #331, 'distance_accuracy_value', 'NONE');
#888 = CARTESIAN_POINT ( 'NONE',  ( -1.649999999999999689, -0.3649999999999999911, -1.650000000000000133 ) ) ;
#889 = VECTOR ( 'NONE', #746, 1000.000000000000000 ) ;
#890 = VECTOR ( 'NONE', #1287, 1000.000000000000000 ) ;
#891 = SURFACE_SIDE_STYLE ('',( #635 ) ) ;
#892 = VERTEX_POINT ( 'NONE', #556 ) ;
#893 = CARTESIAN_POINT ( 'NONE',  ( -0.6499999999999998002, -0.3149999999999999467, -1.650000000000000133 ) ) ;
#894 = EDGE_LOOP ( 'NONE', ( #141, #115, #269, #506, #368, #1282, #1281, #794, #985, #1163, #527, #955 ) ) ;
#895 = VERTEX_POINT ( 'NONE', #1080 ) ;
#896 = CARTESIAN_POINT ( 'NONE',  ( 1.724000000000000421, -0.2650000000000000133, 1.723999999999999977 ) ) ;
#897 = AXIS2_PLACEMENT_3D ( 'NONE', #234, #28, #760 ) ;
#898 = PRESENTATION_LAYER_ASSIGNMENT (  '', '', ( #479 ) ) ;
#899 = FILL_AREA_STYLE_COLOUR ( '', #235 ) ;
#900 = SURFACE_SIDE_STYLE ('',( #123 ) ) ;
#901 = CARTESIAN_POINT ( 'NONE',  ( 0.6500000000000001332, -0.3149999999999999467, 1.649999999999999689 ) ) ;
#902 = DIRECTION ( 'NONE',  ( -8.881784197001252323E-16, 0.000000000000000000, -1.000000000000000000 ) ) ;
#903 = FACE_OUTER_BOUND ( 'NONE', #627, .T. ) ;
#904 = EDGE_CURVE ( 'NONE', #471, #313, #131, .T. ) ;
#905 = UNCERTAINTY_MEASURE_WITH_UNIT (LENGTH_MEASURE( 1.000000000000000082E-05 ), #100, 'distance_accuracy_value', 'NONE');
#906 =( NAMED_UNIT ( * ) SI_UNIT ( $, .STERADIAN. ) SOLID_ANGLE_UNIT ( ) );
#907 = ADVANCED_FACE ( 'NONE', ( #264 ), #175, .F. ) ;
#908 = CARTESIAN_POINT ( 'NONE',  ( 0.000000000000000000, 0.3350000000000001310, 0.000000000000000000 ) ) ;
#909 = SURFACE_STYLE_FILL_AREA ( #574 ) ;
#910 = COLOUR_RGB ( '',1.000000000000000000, 1.000000000000000000, 0.000000000000000000 ) ;
#911 = ORIENTED_EDGE ( 'NONE', *, *, #681, .F. ) ;
#912 = SURFACE_SIDE_STYLE ('',( #138 ) ) ;
#913 = FACE_OUTER_BOUND ( 'NONE', #1265, .T. ) ;
#914 = MECHANICAL_DESIGN_GEOMETRIC_PRESENTATION_REPRESENTATION (  '', ( #1209 ), #1025 ) ;
#915 =( LENGTH_UNIT ( ) NAMED_UNIT ( * ) SI_UNIT ( .MILLI., .METRE. ) );
#916 = COLOUR_RGB ( '',1.000000000000000000, 1.000000000000000000, 0.000000000000000000 ) ;
#917 = FILL_AREA_STYLE ('',( #1284 ) ) ;
#918 = SURFACE_SIDE_STYLE ('',( #613 ) ) ;
#919 = SURFACE_STYLE_FILL_AREA ( #338 ) ;
#920 = PRESENTATION_LAYER_ASSIGNMENT (  '', '', ( #850 ) ) ;
#921 = MECHANICAL_DESIGN_GEOMETRIC_PRESENTATION_REPRESENTATION (  '', ( #102 ), #76 ) ;
#922 = AXIS2_PLACEMENT_3D ( 'NONE', #571, #463, #156 ) ;
#923 = CARTESIAN_POINT ( 'NONE',  ( -1.725000000000000311, 0.2350000000000000144, -1.724999999999999867 ) ) ;
#924 = EDGE_CURVE ( 'NONE', #587, #927, #658, .T. ) ;
#925 = CIRCLE ( 'NONE', #498, 1.294383274468767997 ) ;
#926 =( NAMED_UNIT ( * ) SI_UNIT ( $, .STERADIAN. ) SOLID_ANGLE_UNIT ( ) );
#927 = VERTEX_POINT ( 'NONE', #1009 ) ;
#928 = ORIENTED_EDGE ( 'NONE', *, *, #325, .T. ) ;
#929 = SURFACE_SIDE_STYLE ('',( #715 ) ) ;
#930 = EDGE_LOOP ( 'NONE', ( #776, #1066, #669, #968 ) ) ;
#931 = ORIENTED_EDGE ( 'NONE', *, *, #924, .F. ) ;
#932 = FILL_AREA_STYLE_COLOUR ( '', #988 ) ;
#933 = EDGE_CURVE ( 'NONE', #967, #1053, #1326, .T. ) ;
#934 = DIRECTION ( 'NONE',  ( 1.000000000000000000, -0.000000000000000000, 1.224646799147353207E-16 ) ) ;
#935 = DIRECTION ( 'NONE',  ( -1.000000000000000000, 0.000000000000000000, 1.257045997084642858E-16 ) ) ;
#936 = SURFACE_STYLE_FILL_AREA ( #1286 ) ;
#937 = PRESENTATION_LAYER_ASSIGNMENT (  '', '', ( #52 ) ) ;
#938 =( GEOMETRIC_REPRESENTATION_CONTEXT ( 3 ) GLOBAL_UNCERTAINTY_ASSIGNED_CONTEXT ( ( #220 ) ) GLOBAL_UNIT_ASSIGNED_CONTEXT ( ( #946, #1249, #1047 ) ) REPRESENTATION_CONTEXT ( 'NONE', 'WORKASPACE' ) );
#939 = DIRECTION ( 'NONE',  ( 0.000000000000000000, 1.000000000000000000, 0.000000000000000000 ) ) ;
#940 = ORIENTED_EDGE ( 'NONE', *, *, #7, .T. ) ;
#941 = ORIENTED_EDGE ( 'NONE', *, *, #750, .F. ) ;
#942 = ADVANCED_FACE ( 'NONE', ( #345 ), #994, .F. ) ;
#943 = AXIS2_PLACEMENT_3D ( 'NONE', #394, #374, #1291 ) ;
#944 = CARTESIAN_POINT ( 'NONE',  ( -1.725000000000000089, 0.3649999999999999911, 1.724999999999999867 ) ) ;
#945 = DIRECTION ( 'NONE',  ( -0.000000000000000000, -1.000000000000000000, -0.000000000000000000 ) ) ;
#946 =( LENGTH_UNIT ( ) NAMED_UNIT ( * ) SI_UNIT ( .MILLI., .METRE. ) );
#947 = MECHANICAL_DESIGN_GEOMETRIC_PRESENTATION_REPRESENTATION (  '', ( #652 ), #706 ) ;
#948 = CIRCLE ( 'NONE', #6, 0.1000000000000000472 ) ;
#949 = PRESENTATION_LAYER_ASSIGNMENT (  '', '', ( #654 ) ) ;
#950 = VECTOR ( 'NONE', #380, 1000.000000000000000 ) ;
#951 = SURFACE_SIDE_STYLE ('',( #663 ) ) ;
#952 = ORIENTED_EDGE ( 'NONE', *, *, #393, .T. ) ;
#953 = FACE_OUTER_BOUND ( 'NONE', #797, .T. ) ;
#954 = ORIENTED_EDGE ( 'NONE', *, *, #132, .T. ) ;
#955 = ORIENTED_EDGE ( 'NONE', *, *, #436, .F. ) ;
#956 = CARTESIAN_POINT ( 'NONE',  ( 0.6499999999999998002, -0.3149999999999999467, -1.650000000000000133 ) ) ;
#957 = STYLED_ITEM ( 'NONE', ( #1029 ), #993 ) ;
#958 = EDGE_CURVE ( 'NONE', #967, #408, #595, .T. ) ;
#959 = MECHANICAL_DESIGN_GEOMETRIC_PRESENTATION_REPRESENTATION (  '', ( #285 ), #60 ) ;
#960 = FILL_AREA_STYLE_COLOUR ( '', #172 ) ;
#961 = CIRCLE ( 'NONE', #42, 1.294383274468767997 ) ;
#962 = SURFACE_SIDE_STYLE ('',( #1014 ) ) ;
#963 = UNCERTAINTY_MEASURE_WITH_UNIT (LENGTH_MEASURE( 1.000000000000000082E-05 ), #1038, 'distance_accuracy_value', 'NONE');
#964 = CARTESIAN_POINT ( 'NONE',  ( 0.000000000000000000, -0.3149999999999999467, 0.000000000000000000 ) ) ;
#965 = VECTOR ( 'NONE', #1199, 1000.000000000000000 ) ;
#966 = EDGE_CURVE ( 'NONE', #49, #1258, #416, .T. ) ;
#967 = VERTEX_POINT ( 'NONE', #1308 ) ;
#968 = ORIENTED_EDGE ( 'NONE', *, *, #580, .T. ) ;
#969 =( NAMED_UNIT ( * ) PLANE_ANGLE_UNIT ( ) SI_UNIT ( $, .RADIAN. ) );
#970 = DIRECTION ( 'NONE',  ( 1.314184451497581259E-16, -0.000000000000000000, 1.000000000000000000 ) ) ;
#971 = CARTESIAN_POINT ( 'NONE',  ( 1.724999999999999867, 0.3649999999999999911, -1.725000000000000089 ) ) ;
#972 = SURFACE_STYLE_FILL_AREA ( #633 ) ;
#973 = MECHANICAL_DESIGN_GEOMETRIC_PRESENTATION_REPRESENTATION (  '', ( #52 ), #1252 ) ;
#974 = FILL_AREA_STYLE_COLOUR ( '', #481 ) ;
#975 = SURFACE_STYLE_FILL_AREA ( #707 ) ;
#976 = CARTESIAN_POINT ( 'NONE',  ( -1.150000000000000133, -0.3149999999999999467, 1.649999999999999689 ) ) ;
#977 = VECTOR ( 'NONE', #84, 1000.000000000000000 ) ;
#978 =( NAMED_UNIT ( * ) SI_UNIT ( $, .STERADIAN. ) SOLID_ANGLE_UNIT ( ) );
#979 = ADVANCED_FACE ( 'NONE', ( #187 ), #600, .F. ) ;
#980 = COLOUR_RGB ( '',1.000000000000000000, 1.000000000000000000, 1.000000000000000000 ) ;
#981 =( NAMED_UNIT ( * ) SI_UNIT ( $, .STERADIAN. ) SOLID_ANGLE_UNIT ( ) );
#982 = ORIENTED_EDGE ( 'NONE', *, *, #44, .T. ) ;
#983 = ORIENTED_EDGE ( 'NONE', *, *, #966, .T. ) ;
#984 = ORIENTED_EDGE ( 'NONE', *, *, #455, .T. ) ;
#985 = ORIENTED_EDGE ( 'NONE', *, *, #648, .F. ) ;
#986 =( NAMED_UNIT ( * ) SI_UNIT ( $, .STERADIAN. ) SOLID_ANGLE_UNIT ( ) );
#987 = SURFACE_STYLE_USAGE ( .BOTH. , #586 ) ;
#988 = COLOUR_RGB ( '',1.000000000000000000, 1.000000000000000000, 0.7529411764705882248 ) ;
#989 = CARTESIAN_POINT ( 'NONE',  ( -0.6500000000000001332, -0.3149999999999999467, 1.649999999999999689 ) ) ;
#990 = COLOUR_RGB ( '',0.5019607843137254832, 1.000000000000000000, 0.5019607843137254832 ) ;
#991 = DIRECTION ( 'NONE',  ( 0.000000000000000000, 0.000000000000000000, 1.000000000000000000 ) ) ;
#992 = COLOUR_RGB ( '',1.000000000000000000, 1.000000000000000000, 0.000000000000000000 ) ;
#993 = ADVANCED_FACE ( 'NONE', ( #1289 ), #388, .F. ) ;
#994 = PLANE ( 'NONE',  #1189 ) ;
#995 = LINE ( 'NONE', #21, #597 ) ;
#996 = CARTESIAN_POINT ( 'NONE',  ( -1.724000000000000421, 0.2350000000000000144, -1.724999999999999867 ) ) ;
#997 = LINE ( 'NONE', #769, #666 ) ;
#998 = DIRECTION ( 'NONE',  ( 1.000000000000000000, 0.000000000000000000, 0.000000000000000000 ) ) ;
#999 = COLOUR_RGB ( '',0.5019607843137254832, 1.000000000000000000, 0.5019607843137254832 ) ;
#1000 = FILL_AREA_STYLE_COLOUR ( '', #1186 ) ;
#1001 = ORIENTED_EDGE ( 'NONE', *, *, #91, .T. ) ;
#1002 = VERTEX_POINT ( 'NONE', #500 ) ;
#1003 = ADVANCED_FACE ( 'NONE', ( #203 ), #1241, .F. ) ;
#1004 = STYLED_ITEM ( 'NONE', ( #759 ), #484 ) ;
#1005 = PRODUCT_DEFINITION ( 'UNKNOWN', '', #1124, #672 ) ;
#1006 = CARTESIAN_POINT ( 'NONE',  ( -1.725000000000000089, 0.3649999999999999911, 1.724999999999999867 ) ) ;
#1007 = SURFACE_STYLE_USAGE ( .BOTH. , #1108 ) ;
#1008 = VECTOR ( 'NONE', #1031, 1000.000000000000000 ) ;
#1009 = CARTESIAN_POINT ( 'NONE',  ( 1.724000000000000199, 0.2350000000000000144, 1.723999999999999977 ) ) ;
#1010 =( NAMED_UNIT ( * ) PLANE_ANGLE_UNIT ( ) SI_UNIT ( $, .RADIAN. ) );
#1011 = PRESENTATION_STYLE_ASSIGNMENT (( #317 ) ) ;
#1012 =( GEOMETRIC_REPRESENTATION_CONTEXT ( 3 ) GLOBAL_UNCERTAINTY_ASSIGNED_CONTEXT ( ( #39 ) ) GLOBAL_UNIT_ASSIGNED_CONTEXT ( ( #143, #677, #986 ) ) REPRESENTATION_CONTEXT ( 'NONE', 'WORKASPACE' ) );
#1013 = CARTESIAN_POINT ( 'NONE',  ( 1.724000000000000199, 0.000000000000000000, -2.167776004205867457E-16 ) ) ;
#1014 = SURFACE_STYLE_FILL_AREA ( #754 ) ;
#1015 = CARTESIAN_POINT ( 'NONE',  ( 0.000000000000000000, 0.000000000000000000, -1.724000000000000199 ) ) ;
#1016 = FILL_AREA_STYLE ('',( #414 ) ) ;
#1017 = LINE ( 'NONE', #1018, #468 ) ;
#1018 = CARTESIAN_POINT ( 'NONE',  ( -1.724000000000000199, -0.2650000000000000133, 1.723999999999999977 ) ) ;
#1019 = VERTEX_POINT ( 'NONE', #86 ) ;
#1020 = SURFACE_STYLE_FILL_AREA ( #775 ) ;
#1021 = FILL_AREA_STYLE ('',( #932 ) ) ;
#1022 = ORIENTED_EDGE ( 'NONE', *, *, #427, .F. ) ;
#1023 = EDGE_LOOP ( 'NONE', ( #505, #1332 ) ) ;
#1024 = PLANE ( 'NONE',  #1268 ) ;
#1025 =( GEOMETRIC_REPRESENTATION_CONTEXT ( 3 ) GLOBAL_UNCERTAINTY_ASSIGNED_CONTEXT ( ( #1027 ) ) GLOBAL_UNIT_ASSIGNED_CONTEXT ( ( #1082, #864, #153 ) ) REPRESENTATION_CONTEXT ( 'NONE', 'WORKASPACE' ) );
#1026 = PLANE ( 'NONE',  #690 ) ;
#1027 = UNCERTAINTY_MEASURE_WITH_UNIT (LENGTH_MEASURE( 1.000000000000000082E-05 ), #1082, 'distance_accuracy_value', 'NONE');
#1028 =( NAMED_UNIT ( * ) PLANE_ANGLE_UNIT ( ) SI_UNIT ( $, .RADIAN. ) );
#1029 = PRESENTATION_STYLE_ASSIGNMENT (( #1317 ) ) ;
#1030 = DIRECTION ( 'NONE',  ( -0.000000000000000000, -1.000000000000000000, -0.000000000000000000 ) ) ;
#1031 = DIRECTION ( 'NONE',  ( 1.000000000000000000, 0.000000000000000000, 0.000000000000000000 ) ) ;
#1032 = VECTOR ( 'NONE', #877, 1000.000000000000000 ) ;
#1033 = CARTESIAN_POINT ( 'NONE',  ( 0.000000000000000000, -0.3649999999999999911, 0.000000000000000000 ) ) ;
#1034 = LINE ( 'NONE', #630, #327 ) ;
#1035 = VECTOR ( 'NONE', #1185, 1000.000000000000000 ) ;
#1036 = FILL_AREA_STYLE ('',( #733 ) ) ;
#1037 = FACE_OUTER_BOUND ( 'NONE', #510, .T. ) ;
#1038 =( LENGTH_UNIT ( ) NAMED_UNIT ( * ) SI_UNIT ( .MILLI., .METRE. ) );
#1039 = ORIENTED_EDGE ( 'NONE', *, *, #291, .T. ) ;
#1040 = ORIENTED_EDGE ( 'NONE', *, *, #111, .F. ) ;
#1041 = PRODUCT_CONTEXT ( 'NONE', #113, 'mechanical' ) ;
#1042 = CARTESIAN_POINT ( 'NONE',  ( -1.649999999999999689, -0.3649999999999999911, -1.650000000000000133 ) ) ;
#1043 = UNCERTAINTY_MEASURE_WITH_UNIT (LENGTH_MEASURE( 1.000000000000000082E-05 ), #915, 'distance_accuracy_value', 'NONE');
#1044 = VECTOR ( 'NONE', #1030, 1000.000000000000000 ) ;
#1045 = CARTESIAN_POINT ( 'NONE',  ( 0.000000000000000000, 0.4649999999999999689, 1.393951218658673330 ) ) ;
#1046 = FACE_OUTER_BOUND ( 'NONE', #606, .T. ) ;
#1047 =( NAMED_UNIT ( * ) SI_UNIT ( $, .STERADIAN. ) SOLID_ANGLE_UNIT ( ) );
#1048 = AXIS2_PLACEMENT_3D ( 'NONE', #99, #934, #519 ) ;
#1049 = COLOUR_RGB ( '',1.000000000000000000, 1.000000000000000000, 0.7529411764705882248 ) ;
#1050 = FILL_AREA_STYLE_COLOUR ( '', #45 ) ;
#1051 = ORIENTED_EDGE ( 'NONE', *, *, #765, .T. ) ;
#1052 =( LENGTH_UNIT ( ) NAMED_UNIT ( * ) SI_UNIT ( .MILLI., .METRE. ) );
#1053 = VERTEX_POINT ( 'NONE', #1225 ) ;
#1054 = ORIENTED_EDGE ( 'NONE', *, *, #671, .T. ) ;
#1055 = ORIENTED_EDGE ( 'NONE', *, *, #120, .F. ) ;
#1056 = DIRECTION ( 'NONE',  ( 1.000000000000000000, -0.000000000000000000, -0.000000000000000000 ) ) ;
#1057 = STYLED_ITEM ( 'NONE', ( #169 ), #806 ) ;
#1058 =( GEOMETRIC_REPRESENTATION_CONTEXT ( 3 ) GLOBAL_UNCERTAINTY_ASSIGNED_CONTEXT ( ( #181 ) ) GLOBAL_UNIT_ASSIGNED_CONTEXT ( ( #1052, #429, #734 ) ) REPRESENTATION_CONTEXT ( 'NONE', 'WORKASPACE' ) );
#1059 =( NAMED_UNIT ( * ) SI_UNIT ( $, .STERADIAN. ) SOLID_ANGLE_UNIT ( ) );
#1060 = CARTESIAN_POINT ( 'NONE',  ( 1.650000000000000133, -0.3649999999999999911, -1.650000000000000133 ) ) ;
#1061 = EDGE_CURVE ( 'NONE', #194, #1133, #518, .T. ) ;
#1062 = SURFACE_STYLE_USAGE ( .BOTH. , #962 ) ;
#1063 = FACE_OUTER_BOUND ( 'NONE', #17, .T. ) ;
#1064 = LINE ( 'NONE', #996, #174 ) ;
#1065 = DIRECTION ( 'NONE',  ( 0.000000000000000000, 1.000000000000000000, 0.000000000000000000 ) ) ;
#1066 = ORIENTED_EDGE ( 'NONE', *, *, #1238, .F. ) ;
#1067 = VECTOR ( 'NONE', #591, 1000.000000000000000 ) ;
#1068 = ORIENTED_EDGE ( 'NONE', *, *, #567, .T. ) ;
#1069 = EDGE_LOOP ( 'NONE', ( #314, #1333, #637, #687 ) ) ;
#1070 =( LENGTH_UNIT ( ) NAMED_UNIT ( * ) SI_UNIT ( .MILLI., .METRE. ) );
#1071 = CARTESIAN_POINT ( 'NONE',  ( -1.150000000000000133, -0.3149999999999999467, 1.649999999999999689 ) ) ;
#1072 = AXIS2_PLACEMENT_3D ( 'NONE', #502, #1219, #307 ) ;
#1073 = PRODUCT_RELATED_PRODUCT_CATEGORY ( 'part', '', ( #150 ) ) ;
#1074 = LINE ( 'NONE', #287, #458 ) ;
#1075 = SURFACE_STYLE_USAGE ( .BOTH. , #57 ) ;
#1076 = PRESENTATION_STYLE_ASSIGNMENT (( #209 ) ) ;
#1077 = CARTESIAN_POINT ( 'NONE',  ( 0.6499999999999998002, -0.3649999999999999911, 1.649999999999999689 ) ) ;
#1078 = LINE ( 'NONE', #888, #462 ) ;
#1079 = PRESENTATION_STYLE_ASSIGNMENT (( #1171 ) ) ;
#1080 = CARTESIAN_POINT ( 'NONE',  ( -1.149999999999999689, -0.3649999999999999911, -1.650000000000000133 ) ) ;
#1081 = EDGE_CURVE ( 'NONE', #861, #289, #768, .T. ) ;
#1082 =( LENGTH_UNIT ( ) NAMED_UNIT ( * ) SI_UNIT ( .MILLI., .METRE. ) );
#1083 =( GEOMETRIC_REPRESENTATION_CONTEXT ( 3 ) GLOBAL_UNCERTAINTY_ASSIGNED_CONTEXT ( ( #1269 ) ) GLOBAL_UNIT_ASSIGNED_CONTEXT ( ( #1254, #766, #867 ) ) REPRESENTATION_CONTEXT ( 'NONE', 'WORKASPACE' ) );
#1084 = FACE_OUTER_BOUND ( 'NONE', #95, .T. ) ;
#1085 = ORIENTED_EDGE ( 'NONE', *, *, #130, .F. ) ;
#1086 = UNCERTAINTY_MEASURE_WITH_UNIT (LENGTH_MEASURE( 1.000000000000000082E-05 ), #263, 'distance_accuracy_value', 'NONE');
#1087 = PRESENTATION_STYLE_ASSIGNMENT (( #48 ) ) ;
#1088 = EDGE_LOOP ( 'NONE', ( #1068, #1085, #330, #585 ) ) ;
#1089 =( NAMED_UNIT ( * ) SI_UNIT ( $, .STERADIAN. ) SOLID_ANGLE_UNIT ( ) );
#1090 =( LENGTH_UNIT ( ) NAMED_UNIT ( * ) SI_UNIT ( .MILLI., .METRE. ) );
#1091 = DIRECTION ( 'NONE',  ( 1.314184451497581259E-16, 0.000000000000000000, -1.000000000000000000 ) ) ;
#1092 = AXIS2_PLACEMENT_3D ( 'NONE', #1071, #673, #37 ) ;
#1093 = VECTOR ( 'NONE', #311, 1000.000000000000000 ) ;
#1094 = ADVANCED_FACE ( 'NONE', ( #1261 ), #1026, .F. ) ;
#1095 = FILL_AREA_STYLE ('',( #360 ) ) ;
#1096 = VECTOR ( 'NONE', #970, 1000.000000000000000 ) ;
#1097 = VECTOR ( 'NONE', #533, 1000.000000000000000 ) ;
#1098 = DIRECTION ( 'NONE',  ( 0.000000000000000000, 0.000000000000000000, -1.000000000000000000 ) ) ;
#1099 = DIRECTION ( 'NONE',  ( 0.000000000000000000, 1.000000000000000000, 0.000000000000000000 ) ) ;
#1100 = ADVANCED_FACE ( 'NONE', ( #23 ), #517, .F. ) ;
#1101 =( GEOMETRIC_REPRESENTATION_CONTEXT ( 3 ) GLOBAL_UNCERTAINTY_ASSIGNED_CONTEXT ( ( #649 ) ) GLOBAL_UNIT_ASSIGNED_CONTEXT ( ( #1070, #442, #1059 ) ) REPRESENTATION_CONTEXT ( 'NONE', 'WORKASPACE' ) );
#1102 = ORIENTED_EDGE ( 'NONE', *, *, #1295, .T. ) ;
#1103 = AXIS2_PLACEMENT_3D ( 'NONE', #729, #213, #643 ) ;
#1104 = COLOUR_RGB ( '',0.5019607843137254832, 1.000000000000000000, 0.5019607843137254832 ) ;
#1105 = EDGE_LOOP ( 'NONE', ( #1116, #253, #66, #453 ) ) ;
#1106 = ORIENTED_EDGE ( 'NONE', *, *, #130, .T. ) ;
#1107 = DIRECTION ( 'NONE',  ( -0.000000000000000000, -1.000000000000000000, -0.000000000000000000 ) ) ;
#1108 = SURFACE_SIDE_STYLE ('',( #323 ) ) ;
#1109 =( NAMED_UNIT ( * ) SI_UNIT ( $, .STERADIAN. ) SOLID_ANGLE_UNIT ( ) );
#1110 = DIRECTION ( 'NONE',  ( 0.000000000000000000, 1.000000000000000000, 0.000000000000000000 ) ) ;
#1111 = COLOUR_RGB ( '',1.000000000000000000, 1.000000000000000000, 0.000000000000000000 ) ;
#1112 = SURFACE_STYLE_FILL_AREA ( #139 ) ;
#1113 =( NAMED_UNIT ( * ) SI_UNIT ( $, .STERADIAN. ) SOLID_ANGLE_UNIT ( ) );
#1114 = CARTESIAN_POINT ( 'NONE',  ( 1.649999999999999689, -0.2650000000000000133, 1.649999999999999689 ) ) ;
#1115 = AXIS2_PLACEMENT_3D ( 'NONE', #67, #250, #1285 ) ;
#1116 = ORIENTED_EDGE ( 'NONE', *, *, #305, .F. ) ;
#1117 = CARTESIAN_POINT ( 'NONE',  ( 1.724999999999999867, 0.2350000000000000144, -1.725000000000000089 ) ) ;
#1118 = MECHANICAL_DESIGN_GEOMETRIC_PRESENTATION_REPRESENTATION (  '', ( #1004 ), #449 ) ;
#1119 = CARTESIAN_POINT ( 'NONE',  ( 0.000000000000000000, -0.2650000000000000133, 0.000000000000000000 ) ) ;
#1120 =( NAMED_UNIT ( * ) PLANE_ANGLE_UNIT ( ) SI_UNIT ( $, .RADIAN. ) );
#1121 = CARTESIAN_POINT ( 'NONE',  ( -1.724000000000000199, -0.2650000000000000133, 1.723999999999999977 ) ) ;
#1122 = PRESENTATION_LAYER_ASSIGNMENT (  '', '', ( #811 ) ) ;
#1123 = UNCERTAINTY_MEASURE_WITH_UNIT (LENGTH_MEASURE( 1.000000000000000082E-05 ), #1313, 'distance_accuracy_value', 'NONE');
#1124 = PRODUCT_DEFINITION_FORMATION_WITH_SPECIFIED_SOURCE ( 'ANY', '', #150, .NOT_KNOWN. ) ;
#1125 = VECTOR ( 'NONE', #459, 1000.000000000000000 ) ;
#1126 = DIRECTION ( 'NONE',  ( 0.000000000000000000, -1.000000000000000000, 0.000000000000000000 ) ) ;
#1127 = CIRCLE ( 'NONE', #59, 1.393951218658673330 ) ;
#1128 = LINE ( 'NONE', #1330, #222 ) ;
#1129 = DIRECTION ( 'NONE',  ( 1.000000000000000000, 0.000000000000000000, -0.000000000000000000 ) ) ;
#1130 = COLOUR_RGB ( '',1.000000000000000000, 1.000000000000000000, 0.7529411764705882248 ) ;
#1131 = LINE ( 'NONE', #494, #1145 ) ;
#1132 = VERTEX_POINT ( 'NONE', #202 ) ;
#1133 = VERTEX_POINT ( 'NONE', #1121 ) ;
#1134 = CARTESIAN_POINT ( 'NONE',  ( -1.650000000000000133, -0.3649999999999999911, 1.649999999999999689 ) ) ;
#1135 = ORIENTED_EDGE ( 'NONE', *, *, #1173, .F. ) ;
#1136 = CARTESIAN_POINT ( 'NONE',  ( -1.649999999999999689, -0.3649999999999999911, -1.650000000000000133 ) ) ;
#1137 = ORIENTED_EDGE ( 'NONE', *, *, #298, .T. ) ;
#1138 = FILL_AREA_STYLE_COLOUR ( '', #1111 ) ;
#1139 =( NAMED_UNIT ( * ) SI_UNIT ( $, .STERADIAN. ) SOLID_ANGLE_UNIT ( ) );
#1140 = LINE ( 'NONE', #842, #232 ) ;
#1141 = SURFACE_SIDE_STYLE ('',( #515 ) ) ;
#1142 = UNCERTAINTY_MEASURE_WITH_UNIT (LENGTH_MEASURE( 1.000000000000000082E-05 ), #725, 'distance_accuracy_value', 'NONE');
#1143 = PRESENTATION_LAYER_ASSIGNMENT (  '', '', ( #1004 ) ) ;
#1144 = CARTESIAN_POINT ( 'NONE',  ( 0.000000000000000000, 0.3649999999999999911, 0.000000000000000000 ) ) ;
#1145 = VECTOR ( 'NONE', #162, 1000.000000000000000 ) ;
#1146 = DIRECTION ( 'NONE',  ( 1.314184451497581259E-16, 0.000000000000000000, -1.000000000000000000 ) ) ;
#1147 = CARTESIAN_POINT ( 'NONE',  ( -1.649999999999999689, -0.2650000000000000133, -1.650000000000000133 ) ) ;
#1148 = ORIENTED_EDGE ( 'NONE', *, *, #1295, .F. ) ;
#1149 = PRESENTATION_LAYER_ASSIGNMENT (  '', '', ( #433 ) ) ;
#1150 = DIRECTION ( 'NONE',  ( 0.000000000000000000, 1.000000000000000000, 0.000000000000000000 ) ) ;
#1151 =( NAMED_UNIT ( * ) SI_UNIT ( $, .STERADIAN. ) SOLID_ANGLE_UNIT ( ) );
#1152 = SURFACE_STYLE_FILL_AREA ( #1036 ) ;
#1153 = PRESENTATION_LAYER_ASSIGNMENT (  '', '', ( #652 ) ) ;
#1154 = VECTOR ( 'NONE', #657, 1000.000000000000000 ) ;
#1155 = STYLED_ITEM ( 'NONE', ( #267 ), #216 ) ;
#1156 = LINE ( 'NONE', #642, #889 ) ;
#1157 = SURFACE_STYLE_USAGE ( .BOTH. , #951 ) ;
#1158 = FACE_OUTER_BOUND ( 'NONE', #1162, .T. ) ;
#1159 = CARTESIAN_POINT ( 'NONE',  ( -1.725000000000000311, 0.3649999999999999911, -1.725000000000000089 ) ) ;
#1160 = EDGE_LOOP ( 'NONE', ( #452, #240, #1196, #605 ) ) ;
#1161 = ORIENTED_EDGE ( 'NONE', *, *, #632, .T. ) ;
#1162 = EDGE_LOOP ( 'NONE', ( #777, #1335, #1161, #1212 ) ) ;
#1163 = ORIENTED_EDGE ( 'NONE', *, *, #274, .T. ) ;
#1164 = DIRECTION ( 'NONE',  ( 1.314184451497581259E-16, 0.000000000000000000, -1.000000000000000000 ) ) ;
#1165 = UNCERTAINTY_MEASURE_WITH_UNIT (LENGTH_MEASURE( 1.000000000000000082E-05 ), #1322, 'distance_accuracy_value', 'NONE');
#1166 = PRESENTATION_LAYER_ASSIGNMENT (  '', '', ( #318 ) ) ;
#1167 = EDGE_CURVE ( 'NONE', #1002, #313, #882, .T. ) ;
#1168 =( GEOMETRIC_REPRESENTATION_CONTEXT ( 3 ) GLOBAL_UNCERTAINTY_ASSIGNED_CONTEXT ( ( #905 ) ) GLOBAL_UNIT_ASSIGNED_CONTEXT ( ( #100, #402, #1139 ) ) REPRESENTATION_CONTEXT ( 'NONE', 'WORKASPACE' ) );
#1169 = CARTESIAN_POINT ( 'NONE',  ( -1.649999999999999689, -0.3649999999999999911, -1.650000000000000133 ) ) ;
#1170 = CARTESIAN_POINT ( 'NONE',  ( -1.650000000000000133, -0.3649999999999999911, 1.649999999999999689 ) ) ;
#1171 = SURFACE_STYLE_USAGE ( .BOTH. , #137 ) ;
#1172 = CARTESIAN_POINT ( 'NONE',  ( -1.724000000000000199, 0.2350000000000000144, 1.723999999999999755 ) ) ;
#1173 = EDGE_CURVE ( 'NONE', #49, #1318, #646, .T. ) ;
#1174 = LINE ( 'NONE', #971, #1207 ) ;
#1175 = LINE ( 'NONE', #1279, #525 ) ;
#1176 = DIRECTION ( 'NONE',  ( 0.000000000000000000, -0.000000000000000000, -1.000000000000000000 ) ) ;
#1177 = ORIENTED_EDGE ( 'NONE', *, *, #328, .F. ) ;
#1178 = UNCERTAINTY_MEASURE_WITH_UNIT (LENGTH_MEASURE( 1.000000000000000082E-05 ), #607, 'distance_accuracy_value', 'NONE');
#1179 = DIRECTION ( 'NONE',  ( 1.000000000000000000, 0.000000000000000000, 0.000000000000000000 ) ) ;
#1180 = PLANE ( 'NONE',  #308 ) ;
#1181 = PRESENTATION_LAYER_ASSIGNMENT (  '', '', ( #282 ) ) ;
#1182 = EDGE_CURVE ( 'NONE', #194, #160, #302, .T. ) ;
#1183 = CARTESIAN_POINT ( 'NONE',  ( 0.000000000000000000, 0.3350000000000001310, 0.000000000000000000 ) ) ;
#1184 = COLOUR_RGB ( '',1.000000000000000000, 1.000000000000000000, 0.7529411764705882248 ) ;
#1185 = DIRECTION ( 'NONE',  ( -1.000000000000000000, 0.000000000000000000, 0.000000000000000000 ) ) ;
#1186 = COLOUR_RGB ( '',1.000000000000000000, 1.000000000000000000, 1.000000000000000000 ) ;
#1187 = FILL_AREA_STYLE_COLOUR ( '', #980 ) ;
#1188 = ADVANCED_FACE ( 'NONE', ( #9 ), #1233, .F. ) ;
#1189 = AXIS2_PLACEMENT_3D ( 'NONE', #493, #184, #72 ) ;
#1190 =( GEOMETRIC_REPRESENTATION_CONTEXT ( 3 ) GLOBAL_UNCERTAINTY_ASSIGNED_CONTEXT ( ( #1312 ) ) GLOBAL_UNIT_ASSIGNED_CONTEXT ( ( #1246, #218, #848 ) ) REPRESENTATION_CONTEXT ( 'NONE', 'WORKASPACE' ) );
#1191 = LINE ( 'NONE', #483, #814 ) ;
#1192 = VERTEX_POINT ( 'NONE', #1136 ) ;
#1193 = ORIENTED_EDGE ( 'NONE', *, *, #1167, .F. ) ;
#1194 = DIRECTION ( 'NONE',  ( -0.000000000000000000, 1.000000000000000000, 0.000000000000000000 ) ) ;
#1195 = ORIENTED_EDGE ( 'NONE', *, *, #377, .F. ) ;
#1196 = ORIENTED_EDGE ( 'NONE', *, *, #319, .T. ) ;
#1197 = CARTESIAN_POINT ( 'NONE',  ( 0.000000000000000000, 0.4649999999999999689, 0.000000000000000000 ) ) ;
#1198 = FILL_AREA_STYLE ('',( #1000 ) ) ;
#1199 = DIRECTION ( 'NONE',  ( -1.000000000000000000, -0.000000000000000000, -0.000000000000000000 ) ) ;
#1200 = CARTESIAN_POINT ( 'NONE',  ( 0.000000000000000000, 0.4557142857142856829, 1.294383274468767997 ) ) ;
#1201 = SURFACE_STYLE_USAGE ( .BOTH. , #798 ) ;
#1202 = SURFACE_STYLE_FILL_AREA ( #1198 ) ;
#1203 = DIRECTION ( 'NONE',  ( -1.000000000000000000, -0.000000000000000000, 6.285229985423214289E-17 ) ) ;
#1204 =( NAMED_UNIT ( * ) SI_UNIT ( $, .STERADIAN. ) SOLID_ANGLE_UNIT ( ) );
#1205 = FACE_OUTER_BOUND ( 'NONE', #723, .T. ) ;
#1206 = DIRECTION ( 'NONE',  ( 6.285229985423214289E-17, 0.000000000000000000, 1.000000000000000000 ) ) ;
#1207 = VECTOR ( 'NONE', #665, 1000.000000000000000 ) ;
#1208 =( NAMED_UNIT ( * ) PLANE_ANGLE_UNIT ( ) SI_UNIT ( $, .RADIAN. ) );
#1209 = STYLED_ITEM ( 'NONE', ( #1244 ), #163 ) ;
#1210 = ORIENTED_EDGE ( 'NONE', *, *, #328, .T. ) ;
#1211 = DIRECTION ( 'NONE',  ( -0.000000000000000000, -1.000000000000000000, -0.000000000000000000 ) ) ;
#1212 = ORIENTED_EDGE ( 'NONE', *, *, #111, .T. ) ;
#1213 = FILL_AREA_STYLE_COLOUR ( '', #990 ) ;
#1214 = CARTESIAN_POINT ( 'NONE',  ( -1.649999999999999689, -0.2650000000000000133, -1.650000000000000133 ) ) ;
#1215 = CARTESIAN_POINT ( 'NONE',  ( 1.724999999999999867, 0.3649999999999999911, -1.725000000000000089 ) ) ;
#1216 = EDGE_CURVE ( 'NONE', #563, #684, #217, .T. ) ;
#1217 =( GEOMETRIC_REPRESENTATION_CONTEXT ( 3 ) GLOBAL_UNCERTAINTY_ASSIGNED_CONTEXT ( ( #887 ) ) GLOBAL_UNIT_ASSIGNED_CONTEXT ( ( #331, #431, #1334 ) ) REPRESENTATION_CONTEXT ( 'NONE', 'WORKASPACE' ) );
#1218 = SURFACE_STYLE_FILL_AREA ( #425 ) ;
#1219 = DIRECTION ( 'NONE',  ( -0.000000000000000000, -1.000000000000000000, -0.000000000000000000 ) ) ;
#1220 = FILL_AREA_STYLE_COLOUR ( '', #1184 ) ;
#1221 = CARTESIAN_POINT ( 'NONE',  ( -1.725000000000000089, 0.3649999999999999911, 1.724999999999999867 ) ) ;
#1222 = MANIFOLD_SOLID_BREP ( 'Cut-Extrude7', #686 ) ;
#1223 = VECTOR ( 'NONE', #93, 1000.000000000000000 ) ;
#1224 = LINE ( 'NONE', #1325, #682 ) ;
#1225 = CARTESIAN_POINT ( 'NONE',  ( 1.294383274468767997, 0.4557142857142856829, 0.000000000000000000 ) ) ;
#1226 = SURFACE_SIDE_STYLE ('',( #573 ) ) ;
#1227 = ORIENTED_EDGE ( 'NONE', *, *, #361, .T. ) ;
#1228 = VERTEX_POINT ( 'NONE', #185 ) ;
#1229 = AXIS2_PLACEMENT_3D ( 'NONE', #385, #1110, #495 ) ;
#1230 = EDGE_LOOP ( 'NONE', ( #1256, #1039, #1247, #474 ) ) ;
#1231 = ORIENTED_EDGE ( 'NONE', *, *, #514, .T. ) ;
#1232 = CARTESIAN_POINT ( 'NONE',  ( -1.724000000000000421, 0.2350000000000000144, -1.724999999999999867 ) ) ;
#1233 = PLANE ( 'NONE',  #35 ) ;
#1234 =( NAMED_UNIT ( * ) PLANE_ANGLE_UNIT ( ) SI_UNIT ( $, .RADIAN. ) );
#1235 = DIRECTION ( 'NONE',  ( 0.000000000000000000, 0.000000000000000000, -1.000000000000000000 ) ) ;
#1236 = FILL_AREA_STYLE_COLOUR ( '', #103 ) ;
#1237 = AXIS2_PLACEMENT_3D ( 'NONE', #1183, #683, #159 ) ;
#1238 = EDGE_CURVE ( 'NONE', #859, #895, #656, .T. ) ;
#1239 = AXIS2_PLACEMENT_3D ( 'NONE', #1134, #1235, #628 ) ;
#1240 = CARTESIAN_POINT ( 'NONE',  ( -1.649999999999999689, -0.3649999999999999911, -1.650000000000000133 ) ) ;
#1241 = PLANE ( 'NONE',  #1239 ) ;
#1242 = DIRECTION ( 'NONE',  ( -1.000000000000000000, 0.000000000000000000, -0.000000000000000000 ) ) ;
#1243 = FACE_OUTER_BOUND ( 'NONE', #704, .T. ) ;
#1244 = PRESENTATION_STYLE_ASSIGNMENT (( #352 ) ) ;
#1245 = VERTEX_POINT ( 'NONE', #1114 ) ;
#1246 =( LENGTH_UNIT ( ) NAMED_UNIT ( * ) SI_UNIT ( .MILLI., .METRE. ) );
#1247 = ORIENTED_EDGE ( 'NONE', *, *, #699, .T. ) ;
#1248 = CARTESIAN_POINT ( 'NONE',  ( 0.6500000000000001332, -0.3149999999999999467, 1.649999999999999689 ) ) ;
#1249 =( NAMED_UNIT ( * ) PLANE_ANGLE_UNIT ( ) SI_UNIT ( $, .RADIAN. ) );
#1250 = CARTESIAN_POINT ( 'NONE',  ( -1.150000000000000133, -0.3149999999999999467, 1.649999999999999689 ) ) ;
#1251 = MECHANICAL_DESIGN_GEOMETRIC_PRESENTATION_REPRESENTATION (  '', ( #282 ), #424 ) ;
#1252 =( GEOMETRIC_REPRESENTATION_CONTEXT ( 3 ) GLOBAL_UNCERTAINTY_ASSIGNED_CONTEXT ( ( #1123 ) ) GLOBAL_UNIT_ASSIGNED_CONTEXT ( ( #1313, #1234, #288 ) ) REPRESENTATION_CONTEXT ( 'NONE', 'WORKASPACE' ) );
#1253 = EDGE_CURVE ( 'NONE', #313, #752, #1074, .T. ) ;
#1254 =( LENGTH_UNIT ( ) NAMED_UNIT ( * ) SI_UNIT ( .MILLI., .METRE. ) );
#1255 = ORIENTED_EDGE ( 'NONE', *, *, #319, .F. ) ;
#1256 = ORIENTED_EDGE ( 'NONE', *, *, #1273, .T. ) ;
#1257 = ORIENTED_EDGE ( 'NONE', *, *, #966, .F. ) ;
#1258 = VERTEX_POINT ( 'NONE', #1221 ) ;
#1259 = MECHANICAL_DESIGN_GEOMETRIC_PRESENTATION_REPRESENTATION (  '', ( #336 ), #1012 ) ;
#1260 = FILL_AREA_STYLE_COLOUR ( '', #448 ) ;
#1261 = FACE_OUTER_BOUND ( 'NONE', #1230, .T. ) ;
#1262 = SURFACE_STYLE_FILL_AREA ( #1095 ) ;
#1263 = VECTOR ( 'NONE', #736, 1000.000000000000000 ) ;
#1264 = CARTESIAN_POINT ( 'NONE',  ( 1.149999999999999689, -0.3149999999999999467, -1.650000000000000133 ) ) ;
#1265 = EDGE_LOOP ( 'NONE', ( #738, #421, #1227, #1231 ) ) ;
#1266 = ORIENTED_EDGE ( 'NONE', *, *, #1182, .F. ) ;
#1267 = SURFACE_STYLE_USAGE ( .BOTH. , #51 ) ;
#1268 = AXIS2_PLACEMENT_3D ( 'NONE', #839, #740, #118 ) ;
#1269 = UNCERTAINTY_MEASURE_WITH_UNIT (LENGTH_MEASURE( 1.000000000000000082E-05 ), #1254, 'distance_accuracy_value', 'NONE');
#1270 = CARTESIAN_POINT ( 'NONE',  ( -1.724000000000000421, -0.2650000000000000133, -1.724999999999999867 ) ) ;
#1271 = FILL_AREA_STYLE_COLOUR ( '', #999 ) ;
#1272 = DIRECTION ( 'NONE',  ( 0.000000000000000000, -0.000000000000000000, 1.000000000000000000 ) ) ;
#1273 = EDGE_CURVE ( 'NONE', #587, #703, #357, .T. ) ;
#1274 = PRESENTATION_STYLE_ASSIGNMENT (( #881 ) ) ;
#1275 = AXIS2_PLACEMENT_3D ( 'NONE', #1144, #939, #121 ) ;
#1276 = LINE ( 'NONE', #823, #977 ) ;
#1277 = DIRECTION ( 'NONE',  ( 1.314184451497581259E-16, 0.000000000000000000, -1.000000000000000000 ) ) ;
#1278 = DIRECTION ( 'NONE',  ( 1.314184451497581259E-16, 0.000000000000000000, -1.000000000000000000 ) ) ;
#1279 = CARTESIAN_POINT ( 'NONE',  ( -1.649999999999999689, -0.3649999999999999911, -1.650000000000000133 ) ) ;
#1280 = ORIENTED_EDGE ( 'NONE', *, *, #765, .F. ) ;
#1281 = ORIENTED_EDGE ( 'NONE', *, *, #853, .F. ) ;
#1282 = ORIENTED_EDGE ( 'NONE', *, *, #7, .F. ) ;
#1283 = ORIENTED_EDGE ( 'NONE', *, *, #1081, .F. ) ;
#1284 = FILL_AREA_STYLE_COLOUR ( '', #419 ) ;
#1285 = DIRECTION ( 'NONE',  ( 0.000000000000000000, -0.000000000000000000, -1.000000000000000000 ) ) ;
#1286 = FILL_AREA_STYLE ('',( #166 ) ) ;
#1287 = DIRECTION ( 'NONE',  ( 1.000000000000000000, 0.000000000000000000, 0.000000000000000000 ) ) ;
#1288 = ADVANCED_FACE ( 'NONE', ( #804 ), #712, .F. ) ;
#1289 = FACE_OUTER_BOUND ( 'NONE', #1160, .T. ) ;
#1290 =( NAMED_UNIT ( * ) PLANE_ANGLE_UNIT ( ) SI_UNIT ( $, .RADIAN. ) );
#1291 = DIRECTION ( 'NONE',  ( -1.314184451497581259E-16, 0.000000000000000000, -1.000000000000000000 ) ) ;
#1292 = LINE ( 'NONE', #1250, #599 ) ;
#1293 = CARTESIAN_POINT ( 'NONE',  ( 0.000000000000000000, -0.3649999999999999911, 0.000000000000000000 ) ) ;
#1294 = PRESENTATION_LAYER_ASSIGNMENT (  '', '', ( #1057 ) ) ;
#1295 = EDGE_CURVE ( 'NONE', #161, #509, #610, .T. ) ;
#1296 = UNCERTAINTY_MEASURE_WITH_UNIT (LENGTH_MEASURE( 1.000000000000000082E-05 ), #883, 'distance_accuracy_value', 'NONE');
#1297 = DIRECTION ( 'NONE',  ( 1.000000000000000000, 0.000000000000000000, -6.285229985423214289E-17 ) ) ;
#1298 = ADVANCED_FACE ( 'NONE', ( #145 ), #5, .F. ) ;
#1299 = COLOUR_RGB ( '',0.5019607843137254832, 1.000000000000000000, 0.5019607843137254832 ) ;
#1300 =( LENGTH_UNIT ( ) NAMED_UNIT ( * ) SI_UNIT ( .MILLI., .METRE. ) );
#1301 = ORIENTED_EDGE ( 'NONE', *, *, #671, .F. ) ;
#1302 = ORIENTED_EDGE ( 'NONE', *, *, #555, .T. ) ;
#1303 = CARTESIAN_POINT ( 'NONE',  ( 1.724000000000000421, -0.2650000000000000133, 1.723999999999999977 ) ) ;
#1304 = EDGE_CURVE ( 'NONE', #1132, #563, #1140, .T. ) ;
#1305 =( NAMED_UNIT ( * ) SI_UNIT ( $, .STERADIAN. ) SOLID_ANGLE_UNIT ( ) );
#1306 = CARTESIAN_POINT ( 'NONE',  ( -1.650000000000000133, -0.3649999999999999911, 1.649999999999999689 ) ) ;
#1307 = PRESENTATION_STYLE_ASSIGNMENT (( #820 ) ) ;
#1308 = CARTESIAN_POINT ( 'NONE',  ( 7.960204194457795477E-17, 1.635000000000000231, 0.000000000000000000 ) ) ;
#1309 = VECTOR ( 'NONE', #193, 1000.000000000000000 ) ;
#1310 = DIRECTION ( 'NONE',  ( 1.257410463885769095E-16, 0.000000000000000000, 1.000000000000000000 ) ) ;
#1311 = LINE ( 'NONE', #1240, #152 ) ;
#1312 = UNCERTAINTY_MEASURE_WITH_UNIT (LENGTH_MEASURE( 1.000000000000000082E-05 ), #1246, 'distance_accuracy_value', 'NONE');
#1313 =( LENGTH_UNIT ( ) NAMED_UNIT ( * ) SI_UNIT ( .MILLI., .METRE. ) );
#1314 = PRESENTATION_LAYER_ASSIGNMENT (  '', '', ( #401 ) ) ;
#1315 = CIRCLE ( 'NONE', #1229, 1.294383274468767997 ) ;
#1316 = EDGE_LOOP ( 'NONE', ( #721, #315, #846, #1302 ) ) ;
#1317 = SURFACE_STYLE_USAGE ( .BOTH. , #608 ) ;
#1318 = VERTEX_POINT ( 'NONE', #638 ) ;
#1319 = ORIENTED_EDGE ( 'NONE', *, *, #875, .T. ) ;
#1320 = DIRECTION ( 'NONE',  ( 0.000000000000000000, -0.000000000000000000, -1.000000000000000000 ) ) ;
#1321 = CARTESIAN_POINT ( 'NONE',  ( 1.725000000000000311, 0.3649999999999999911, 1.724999999999999867 ) ) ;
#1322 =( LENGTH_UNIT ( ) NAMED_UNIT ( * ) SI_UNIT ( .MILLI., .METRE. ) );
#1323 = AXIS2_PLACEMENT_3D ( 'NONE', #1169, #670, #1179 ) ;
#1324 = PRESENTATION_LAYER_ASSIGNMENT (  '', '', ( #718 ) ) ;
#1325 = CARTESIAN_POINT ( 'NONE',  ( -1.725000000000000311, 0.3649999999999999911, -1.725000000000000089 ) ) ;
#1326 = CIRCLE ( 'NONE', #410, 1.300000000000000044 ) ;
#1327 = DIRECTION ( 'NONE',  ( 0.000000000000000000, 0.000000000000000000, -1.000000000000000000 ) ) ;
#1328 = CARTESIAN_POINT ( 'NONE',  ( -1.725000000000000311, 0.3649999999999999911, -1.725000000000000089 ) ) ;
#1329 = LINE ( 'NONE', #559, #248 ) ;
#1330 = CARTESIAN_POINT ( 'NONE',  ( -0.6499999999999998002, -0.3149999999999999467, -1.650000000000000133 ) ) ;
#1331 = SURFACE_STYLE_USAGE ( .BOTH. , #332 ) ;
#1332 = ORIENTED_EDGE ( 'NONE', *, *, #750, .T. ) ;
#1333 = ORIENTED_EDGE ( 'NONE', *, *, #205, .F. ) ;
#1334 =( NAMED_UNIT ( * ) SI_UNIT ( $, .STERADIAN. ) SOLID_ANGLE_UNIT ( ) );
#1335 = ORIENTED_EDGE ( 'NONE', *, *, #853, .T. ) ;
#1336 = ORIENTED_EDGE ( 'NONE', *, *, #924, .T. ) ;
ENDSEC;
END-ISO-10303-21;
